<svg viewBox="0 0 1281 400" xmlns="http://www.w3.org/2000/svg"><g><g><g><g><g><line x1="60" y1="378" x2="55" y2="378" style="visibility: inherit;" fill="rgb(0, 0, 0)" stroke="rgb(204, 204, 204)" stroke-width="1px"></line><line x1="60" y1="330.75" x2="55" y2="330.75" style="visibility: inherit;" fill="rgb(0, 0, 0)" stroke="rgb(204, 204, 204)" stroke-width="1px"></line><line x1="60" y1="283.5" x2="55" y2="283.5" style="visibility: inherit;" fill="rgb(0, 0, 0)" stroke="rgb(204, 204, 204)" stroke-width="1px"></line><line x1="60" y1="236.24999999999997" x2="55" y2="236.24999999999997" style="visibility: inherit;" fill="rgb(0, 0, 0)" stroke="rgb(204, 204, 204)" stroke-width="1px"></line><line x1="60" y1="189" x2="55" y2="189" style="visibility: inherit;" fill="rgb(0, 0, 0)" stroke="rgb(204, 204, 204)" stroke-width="1px"></line><line x1="60" y1="141.75" x2="55" y2="141.75" style="visibility: inherit;" fill="rgb(0, 0, 0)" stroke="rgb(204, 204, 204)" stroke-width="1px"></line><line x1="60" y1="94.49999999999994" x2="55" y2="94.49999999999994" style="visibility: inherit;" fill="rgb(0, 0, 0)" stroke="rgb(204, 204, 204)" stroke-width="1px"></line><line x1="60" y1="47.25000000000006" x2="55" y2="47.25000000000006" style="visibility: inherit;" fill="rgb(0, 0, 0)" stroke="rgb(204, 204, 204)" stroke-width="1px"></line><line x1="60" y1="0" x2="55" y2="0" style="visibility: inherit;" fill="rgb(0, 0, 0)" stroke="rgb(204, 204, 204)" stroke-width="1px"></line></g><g transform="translate(50, 0)"><text x="0" y="378" dx="0em" dy="0.3em" style="text-anchor: end; visibility: hidden; font-family: &quot;Helvetica Neue&quot;, sans-serif; font-size: 12px; font-weight: 200;" fill="rgb(50, 49, 63)" stroke="none" stroke-width="1px">-0.1</text><text x="0" y="330.75" dx="0em" dy="0.3em" style="text-anchor: end; visibility: inherit; font-family: &quot;Helvetica Neue&quot;, sans-serif; font-size: 12px; font-weight: 200;" fill="rgb(50, 49, 63)" stroke="none" stroke-width="1px">-0.05</text><text x="0" y="283.5" dx="0em" dy="0.3em" style="text-anchor: end; visibility: inherit; font-family: &quot;Helvetica Neue&quot;, sans-serif; font-size: 12px; font-weight: 200;" fill="rgb(50, 49, 63)" stroke="none" stroke-width="1px">0</text><text x="0" y="236.24999999999997" dx="0em" dy="0.3em" style="text-anchor: end; visibility: inherit; font-family: &quot;Helvetica Neue&quot;, sans-serif; font-size: 12px; font-weight: 200;" fill="rgb(50, 49, 63)" stroke="none" stroke-width="1px">0.05</text><text x="0" y="189" dx="0em" dy="0.3em" style="text-anchor: end; visibility: inherit; font-family: &quot;Helvetica Neue&quot;, sans-serif; font-size: 12px; font-weight: 200;" fill="rgb(50, 49, 63)" stroke="none" stroke-width="1px">0.1</text><text x="0" y="141.75" dx="0em" dy="0.3em" style="text-anchor: end; visibility: inherit; font-family: &quot;Helvetica Neue&quot;, sans-serif; font-size: 12px; font-weight: 200;" fill="rgb(50, 49, 63)" stroke="none" stroke-width="1px">0.15</text><text x="0" y="94.49999999999994" dx="0em" dy="0.3em" style="text-anchor: end; visibility: inherit; font-family: &quot;Helvetica Neue&quot;, sans-serif; font-size: 12px; font-weight: 200;" fill="rgb(50, 49, 63)" stroke="none" stroke-width="1px">0.2</text><text x="0" y="47.25000000000006" dx="0em" dy="0.3em" style="text-anchor: end; visibility: inherit; font-family: &quot;Helvetica Neue&quot;, sans-serif; font-size: 12px; font-weight: 200;" fill="rgb(50, 49, 63)" stroke="none" stroke-width="1px">0.25</text><text x="0" y="0" dx="0em" dy="0.3em" style="text-anchor: end; visibility: hidden; font-family: &quot;Helvetica Neue&quot;, sans-serif; font-size: 12px; font-weight: 200;" fill="rgb(50, 49, 63)" stroke="none" stroke-width="1px">0.3</text></g><line x1="60" y1="0" x2="60" y2="378" fill="rgb(0, 0, 0)" stroke="rgb(204, 204, 204)" stroke-width="1px"></line></g></g><g transform="translate(60, 0)" clip-path="url(#clip_0)"><clipPath id="clip_0"><rect width="1221" height="378"></rect></clipPath><g><g><g><line x1="0" y1="0" x2="0" y2="378" fill="rgb(0, 0, 0)" stroke="rgb(60, 60, 60)" stroke-width="1px" opacity="0.25"></line><line x1="101.75" y1="0" x2="101.75" y2="378" fill="rgb(0, 0, 0)" stroke="rgb(60, 60, 60)" stroke-width="1px" opacity="0.25"></line><line x1="203.5" y1="0" x2="203.5" y2="378" fill="rgb(0, 0, 0)" stroke="rgb(60, 60, 60)" stroke-width="1px" opacity="0.25"></line><line x1="305.25" y1="0" x2="305.25" y2="378" fill="rgb(0, 0, 0)" stroke="rgb(60, 60, 60)" stroke-width="1px" opacity="0.25"></line><line x1="407" y1="0" x2="407" y2="378" fill="rgb(0, 0, 0)" stroke="rgb(60, 60, 60)" stroke-width="1px" opacity="0.25"></line><line x1="508.75" y1="0" x2="508.75" y2="378" fill="rgb(0, 0, 0)" stroke="rgb(60, 60, 60)" stroke-width="1px" opacity="0.25"></line><line x1="610.5" y1="0" x2="610.5" y2="378" fill="rgb(0, 0, 0)" stroke="rgb(60, 60, 60)" stroke-width="1px" opacity="0.25"></line><line x1="712.25" y1="0" x2="712.25" y2="378" fill="rgb(0, 0, 0)" stroke="rgb(60, 60, 60)" stroke-width="1px" opacity="0.25"></line><line x1="814" y1="0" x2="814" y2="378" fill="rgb(0, 0, 0)" stroke="rgb(60, 60, 60)" stroke-width="1px" opacity="0.25"></line><line x1="915.75" y1="0" x2="915.75" y2="378" fill="rgb(0, 0, 0)" stroke="rgb(60, 60, 60)" stroke-width="1px" opacity="0.25"></line><line x1="1017.5" y1="0" x2="1017.5" y2="378" fill="rgb(0, 0, 0)" stroke="rgb(60, 60, 60)" stroke-width="1px" opacity="0.25"></line><line x1="1119.25" y1="0" x2="1119.25" y2="378" fill="rgb(0, 0, 0)" stroke="rgb(60, 60, 60)" stroke-width="1px" opacity="0.25"></line><line x1="1221" y1="0" x2="1221" y2="378" fill="rgb(0, 0, 0)" stroke="rgb(60, 60, 60)" stroke-width="1px" opacity="0.25"></line></g><g><line x1="0" y1="378" x2="1221" y2="378" fill="rgb(0, 0, 0)" stroke="rgb(60, 60, 60)" stroke-width="1px" opacity="0.25"></line><line x1="0" y1="330.75" x2="1221" y2="330.75" fill="rgb(0, 0, 0)" stroke="rgb(60, 60, 60)" stroke-width="1px" opacity="0.25"></line><line x1="0" y1="283.5" x2="1221" y2="283.5" fill="rgb(0, 0, 0)" stroke="rgb(60, 60, 60)" stroke-width="1px" opacity="0.25"></line><line x1="0" y1="236.24999999999997" x2="1221" y2="236.24999999999997" fill="rgb(0, 0, 0)" stroke="rgb(60, 60, 60)" stroke-width="1px" opacity="0.25"></line><line x1="0" y1="189" x2="1221" y2="189" fill="rgb(0, 0, 0)" stroke="rgb(60, 60, 60)" stroke-width="1px" opacity="0.25"></line><line x1="0" y1="141.75" x2="1221" y2="141.75" fill="rgb(0, 0, 0)" stroke="rgb(60, 60, 60)" stroke-width="1px" opacity="0.25"></line><line x1="0" y1="94.49999999999994" x2="1221" y2="94.49999999999994" fill="rgb(0, 0, 0)" stroke="rgb(60, 60, 60)" stroke-width="1px" opacity="0.25"></line><line x1="0" y1="47.25000000000006" x2="1221" y2="47.25000000000006" fill="rgb(0, 0, 0)" stroke="rgb(60, 60, 60)" stroke-width="1px" opacity="0.25"></line><line x1="0" y1="0" x2="1221" y2="0" fill="rgb(0, 0, 0)" stroke="rgb(60, 60, 60)" stroke-width="1px" opacity="0.25"></line></g></g></g><g><g><line x1="0" y1="283.5" x2="1221" y2="283.5" fill="rgb(0, 0, 0)" stroke="rgb(153, 153, 153)" stroke-width="1.5px"></line></g></g><g><g><line x1="101.75" y1="0" x2="101.75" y2="378" fill="rgb(0, 0, 0)" stroke="rgb(153, 153, 153)" stroke-width="1.5px"></line></g></g><g><g><g><g><g><path stroke="rgb(255, 112, 67)" stroke-width="2px" d="M126.05807499999999,-7.592568651693455L126.5363,2.9001161915359717L127.034875,11.937801566088353L127.04505,28.665437000160466L127.16715,36.95594196629679L127.51310000000001,50.581439220582865L129.069875,60.847048325522906L129.6295,71.4223859207342L132.66165,88.22537890063722L134.61525,99.40613912813859L134.77805,106.46835713412634L135.378375,111.46695245606298L138.56315,120.36243268159882L138.58350000000002,127.96115170609255L139.09225,135.5596960166313L139.814675,140.12394009197055L140.55745000000002,145.22881053120494L140.628675,147.77887264634927L141.7174,155.00581896651457L142.0023,160.1745330476075L142.81629999999998,166.3959341199296L144.4443,168.5787793969402L145.675475,167.91247996495855L146.51999999999998,170.89611102674036L147.4561,173.8211146419628L147.629075,172.14395484662265L149.3283,174.54213274765354L150.46790000000001,172.69951265696236L152.329925,175.59218297337935L153.70355,179.4874545956101L153.98844999999997,184.71220614135302L156.13537499999998,184.10293042204998L156.277825,186.24166871437035L158.211075,187.67833544711218L159.53382499999998,191.86985590646665L159.981525,193.52579765065047L160.84640000000002,196.82316210723332L161.4162,196.17523091808673L161.487425,199.69159531358878L161.853725,201.91399106863693L162.69825,204.8714480202571L164.835,202.36944241136115L165.028325,204.59267580817144L165.740575,204.1322849560166L168.64045,205.88289499560693L168.935525,208.32628046010922L169.91232499999998,207.52035012855225L170.03442500000003,210.73362543441903L171.48944999999998,213.35926495208585L172.62905,208.62781482177684L174.552125,209.38140020872544L176.86185,207.42643010919608L177.6555,207.8194244638162L177.68602499999997,212.46173679400715L178.17442499999999,215.80858394697728L180.9929,218.66299217526534L181.09465000000003,219.6898467445263L181.45077500000002,221.4005499800201L183.058425,222.54461246012428L183.82154999999997,221.8220144874835L184.98149999999998,221.64961139628468L185.39867500000003,227.37725047799952L186.843525,228.18568651626325L186.98597500000002,229.22329946570636L188.21715,228.99497588546583L188.3189,224.1450474177693L189.265175,227.91588812635445L192.08365,225.50535182451023L192.5924,224.73466663218957L192.663625,222.78992707560852L193.253775,225.10946177412225L195.97050000000002,228.5730303564938L198.0869,226.80342870964208L198.96195,227.66126846417228L199.094225,222.35205005511602L200.42714999999998,225.66709029878496L201.902525,228.5046841500329L202.553725,226.76207693087972L206.30829999999997,229.74484331195413L206.379525,228.06501084275502L207.55982500000002,229.04300371989262L208.37382499999998,230.18689205688565L208.81135,231.3791373275481L209.676225,231.43928142915837L211.202475,229.776009282398L211.4365,227.0014000890158L212.67785,231.06828652568197L212.708375,231.04565789877265L213.32905,228.28205382677444L213.41045000000003,227.44971221459107L213.8785,225.086331586155L214.71285,231.28129568018775L217.938325,231.77958770489892L218.4776,234.19304220785435L219.0881,235.99309776388253L219.43404999999998,238.630400560908L220.64487499999998,239.00138820762427L221.39782499999998,238.79134097720274L223.534575,225.76313319550863L223.58545,227.3757721396699L225.5187,226.29808737950898L226.80075,225.63738621970998L230.677425,226.68170600303114L232.773475,227.56242841947378L233.40432500000003,221.50506356462694L234.37095000000002,224.9160832598119L234.645675,225.0217232154478L235.134075,223.23008505434882L238.11535,219.89331343853812L239.58055000000002,223.02194858359786L240.09947499999998,224.0695374730353L240.3335,224.07037319258367L242.26675,225.55708287830407L243.0197,221.16261905595314L245.01399999999998,221.54312629431135L246.448675,222.46688661171805L247.19145,223.75002578995472L247.63915,226.8062582641154L248.748225,226.51433670527462L250.69165,226.97680609712046L250.9969,229.2180038464689L251.190225,227.28376461923366L252.12632499999998,228.68084545083966L252.43157499999998,230.80247366613563L253.082775,233.2922760208824L253.27609999999999,229.79455286955113L257.6717,229.80144218809656L259.187775,231.37056267846262L259.208125,233.59906622121173L259.533725,233.36014616679387L261.9045,233.1600866870721L262.1487,229.1119679204772L265.7303,228.8577444838536L267.083575,229.54405346422786L267.816175,228.00271050614268L271.641975,231.6255951336675L272.781575,228.7396821961843L273.269975,226.2025578732473L273.697325,226.13123063884498L275.39655,229.39136357116578L275.711975,226.92404299256327L277.6961,227.73844838366458L277.950475,226.17124910705203L278.174325,227.20915765862165L280.250025,225.4152371494892L280.392475,225.47120252829257L280.68755,226.6529897021073L280.76894999999996,225.50120064644074L285.561375,223.36997281963355L289.488925,227.32422780798132L294.64765,227.44557629122477L296.25530000000003,228.16724631687114L296.794575,230.44039219628158L297.832425,230.88333452791267L300.47792499999997,231.58506875302342L301.587,231.75330817669695L301.72945000000004,232.1036549691321L302.512925,230.8598803771647L303.68305,229.7224765285992L304.61915,230.52979169197263L305.199125,226.6643529217447L305.606125,222.33535974838625L305.78927500000003,213.87951970451994L305.88085,209.6261838296492L306.65414999999996,177.83756862080028L307.7327,151.22734614582635L307.8141,124.25266290435533L308.536525,109.64374424413808L309.727,111.06429421152268L310.734325,112.21541477001585L310.7445,126.46991155832106L310.96835,128.87177423023215L311.13115000000005,142.9305029656327L313.176325,143.5569704122758L313.20685000000003,150.8243234669336L313.705425,155.48731662634378L313.94962499999997,174.77743439743818L316.23900000000003,178.31533381963638L316.8902,196.89096196853643L317.551575,204.12980224435293L317.7856,213.34654017288625L318.67082500000004,220.45941702555484L319.403425,216.94437607083353L320.74652499999996,225.38515542513048L324.0534,216.6365896489338L325.66105,220.74981628774566L328.092875,206.06061139769656L328.5711,193.1895055789272L328.95775000000003,191.74812085389098L329.24265,209.37631924789758L330.4026,205.77447739187872L334.147,212.16256314429722L337.17915,208.8363802998483L337.2809,192.72981738631321L337.72860000000003,187.87689789264095L337.99315,192.97543029325684L338.451025,189.4491351179715L338.68505,190.74590044191865L339.44817500000005,178.7183283978047L340.119725,181.08711610548346L341.26950000000005,190.63767341139226L342.59225000000004,194.0296953526653L342.704175,187.50469078834183L342.907675,196.23507118670128L345.31915,202.77501579528962L346.75382499999995,210.19491694881944L347.44572500000004,222.64710223498514L348.81935,215.64496303856117L348.8397,211.9940053570701L349.22634999999997,217.8281565276204L349.460375,225.28602070491092L352.268675,206.7954638379629L353.265825,206.69077254714242L353.347225,202.6732642253363L355.117675,208.4276221944066L355.45345000000003,196.6196074860605L356.20640000000003,204.8608518174855L356.60322499999995,171.81331006042993L357.478275,164.8708387739049L358.699275,178.98778186467945L359.5031,176.9786732133685L360.103425,173.396231907034L363.10505,169.65597690948758L364.3871,157.3425946139129L364.743225,166.47394939777215L365.496175,157.06509807769783L366.97155,161.7215622156137L367.225925,167.57615977176562L367.87712500000004,189.32998444099485L368.019575,169.1135405191776L369.383025,153.26253792344784L370.400525,143.37101705786696L371.08225,135.94651978288528L374.409475,137.6263567555281L374.41965,141.43580765507005L374.735075,145.04769051192042L377.91985,131.01411948046578L378.04195,128.68866919718374L378.08265,131.8660029283817L378.09282499999995,135.16955180390596L379.26295,136.87570998862378L381.613375,142.48182365744586L382.610525,142.15311577652815L382.7835,151.15950256578424L382.96664999999996,149.67969627074734L384.869375,162.04093351688945L385.7953,164.923215798598L386.14124999999996,167.7624128658156L386.3244,183.21010300728412L389.916175,195.6423531997402L391.10665000000006,195.98541545914614L391.238925,199.18534705248078L392.175025,197.8316963146586L392.4701,198.21363793893684L392.866925,202.92145917919603L396.51975,207.5058826833657L396.78430000000003,223.08919096632596L397.20147499999996,224.3867246176845L397.45585,240.19455560949194L398.870175,242.3264666384834L399.50102499999997,248.9867505650162L401.617425,242.93949689829583L401.78022500000003,236.0714437866944L402.53317499999997,229.53729604825799L403.041925,227.78916432408695L404.425725,230.53044854924588L405.26007500000003,228.3339653693803L407.05087499999996,224.38086550115926L407.315425,230.29831476595814L407.9361,223.39088475726936L408.77045,232.57404128797097L409.47252499999996,213.9358957557679L409.8897,204.4596192363223L410.327225,204.13813820942383L411.670325,208.64799350922524L411.78225,209.76295412663703L413.22709999999995,218.9421799270668L414.18355,217.27488894371024L414.32599999999996,220.80043211180293L421.30605,220.2286158474112L421.682525,227.70062675687535L424.2568,230.65165191896943L425.39639999999997,229.68503344450957L426.057775,203.36248550869146L426.12899999999996,199.84170488638273L426.69879999999995,201.64475293962224L426.790375,206.273760737932L427.3907,204.9515814031965L427.52297500000003,196.7667565751674L429.12045,198.19233076857674L429.456225,183.70437509252122L431.77612500000004,180.5172333670374L432.86485,178.72870804806593L434.034975,174.80675247328213L434.53355,180.08961638050317L435.10335,184.69530875910425L436.44644999999997,191.0549393717411L436.52785,195.66239478542656L437.87095,204.67785926010043L439.0716,218.52106340004434L439.346325,203.77370564238598L439.366675,202.31937367265922L440.282425,205.778444767702L440.99467500000003,205.54988429610816L441.340625,203.08290373440835L441.62552500000004,197.88726946933286L444.93240000000003,206.54858579042414L445.023975,214.95197822506975L445.146075,206.39538046522617L445.3394,195.3799931684452L445.512375,201.81155354315788L446.061825,209.15670804467948L446.183925,213.1489431197459L446.43829999999997,227.46095996742926L446.814775,225.90972544648287L447.872975,219.8367399108809L448.0663,206.3561726933239L449.134675,227.6286510058368L451.38334999999995,226.98364765601363L451.59702500000003,224.08315069716832L452.15665,221.17825843406587L453.041875,227.0887981078849L453.794825,230.22631621400024L455.66702499999997,229.582369672418L461.263275,229.71289578024044L461.47695,216.45292482274127L461.55835,230.28528720793256L461.71097499999996,200.33563433203105L462.789525,197.08651297297624L463.705275,205.71154534356756L465.719925,210.5508519564076L465.79115,196.05598247942626L466.513575,204.91440275551864L467.571775,199.26881323474788L467.74475,192.84444528786057L468.426475,205.23250683784852L470.55305000000004,208.9749824549222L470.848125,212.26970601668677L474.450075,209.12042425605878L474.75532499999997,211.7156501720149L474.94865000000004,211.5941697886713L475.854225,211.58785319301595L476.383325,212.4356757781427L476.69875,212.8209182677655L477.278725,218.07777182807436L479.944575,213.31527929655005L480.28035,218.47387794496854L482.85462500000006,220.4910007014813L483.200575,220.4576275935655L485.99870000000004,220.3187958072327L487.1383,238.0906304544426L490.35360000000003,227.57694142328268L490.913225,223.17768499910576L492.866825,217.8248822677344L493.029625,219.92618907390437L493.14155,205.2169718791985L494.93235,196.9949188860307L495.5225,193.09638787017533L495.72600000000006,190.90596741042555L496.94699999999995,191.37994512070344L498.38167500000003,196.14130906974685L498.625875,195.59871288755258L500.00967499999996,212.84331413477648L500.986475,216.04330113865L501.5868,219.39534875526397L501.69872499999997,207.86897859447188L505.71785,182.34974113841182L506.00275,187.32991161506695L506.521675,192.15312151944042L507.50865000000005,196.05442787451327L507.824075,194.8793840819023L507.87494999999996,194.07098694623568L508.9535,198.32492342828223L511.76180000000005,209.61635208649133L513.8375,216.35131524212537L515.333225,194.60883114012677L515.496025,201.36004788019514L515.536725,214.5423570218445L515.8725,216.5114947807251L516.076,236.59156379024247L516.818775,254.39101676044749L519.332,240.94071899684823L520.2274,236.7000045999076L521.4077,220.06977348591013L521.682425,231.14097805516792L522.394675,244.09598530600158L523.086575,243.1972293451561L523.920925,239.09117660016406L524.409325,248.8288006403501L524.572125,240.27761169477208L527.787425,247.0506821633787L529.232275,240.34387788137082L530.46345,238.90914621733597L531.5827,243.37082945587005L532.549325,248.94648935940518L533.67875,250.5707428724517L533.8619,253.8152818024682L535.99865,228.55348167416994L538.9087000000001,229.83659003942134L539.081675,238.1182838302124L539.4785,262.1069599988296L542.10365,258.07056671425505L544.54565,213.70601286571778L544.9017749999999,215.76184966667512L545.451225,211.25152224951714L545.776825,204.17374980554234L546.509425,206.38931770851315L546.78415,195.81889803127865L546.8248500000001,196.20903072466558L547.465875,163.31865616633223L549.2465,174.92592127142535L549.378775,165.80293471253842L550.192775,148.50011770098985L550.233475,139.68985478494594L550.599775,134.26178565535807L551.485,135.27739875534894L551.556225,129.46150434993083L552.003925,124.34566782859525L552.5432,112.69798948171848L555.402375,93.7779094405222L556.012875,109.51583747480282L557.61035,122.02424532494777L557.7528,138.9709288758036L559.2587,142.61793704140396L560.6831999999999,146.07553530640655L562.7792499999999,150.50535547047417L562.8708250000001,152.23249253253655L563.4100999999999,150.76074685830196L564.783725,131.43692775215885L565.150025,153.63104040787871L566.32015,170.29064882327478L568.161825,177.4538027051823L570.135775,181.66802186130312L570.71575,183.5686758315407L571.519575,190.38661874469824L571.8858749999999,206.16711202004967L573.03565,207.79444826802748L573.19845,201.12655160977624L574.002275,214.70873847492234L574.877325,213.23829310897327L581.98965,215.00544069757984L582.4271749999999,222.17845902579492L583.0376749999999,189.22977128461312L583.241175,178.6125423622381L584.421475,186.3587164478916L584.950575,189.1990970148239L585.561075,208.89179254486055L585.927375,208.39975551593054L586.46665,195.02913181224923L586.639625,203.83252125421345L586.782075,208.35639438181434L587.026275,206.46025126774273L587.148375,220.8652836702905L587.5452,205.17752696127712L587.68765,203.85046861095776L588.94935,213.07373514600542L589.610725,217.65015027024742L589.84475,206.38734220297837L590.9233,202.13818000713138L591.991675,204.95814811601173L592.459725,216.3611194408514L595.46135,213.66408561577904L598.7377,210.99724231188094L600.14185,212.53138024456226L603.0926,209.67481084201071L603.64205,217.4647671400414L603.896425,219.82071720324166L605.1784749999999,223.59101826570807L606.00265,226.8364345629618L606.623325,237.19713402664982L606.81665,247.91381017256512L610.56105,238.24145603394808L611.0698,233.54509047136295L612.016075,230.16198067619337L612.1788750000001,233.48606655087733L612.484125,228.25305858728063L613.2269,234.5563477385079L614.38685,207.7425095901379L616.900075,219.46384427255745L616.920425,221.85439362702292L618.833325,208.92405394031854L620.4613250000001,196.36455733792866L622.0384499999999,198.8780140514983L622.984725,202.96468455447535L623.54435,202.71168194154623L624.15485,201.53999846792044L628.30625,203.97732982828168L628.79465,202.24234581228058L628.87605,203.1194101425798L630.38195,201.74141450377323L630.860175,205.2487073450454L631.531725,224.71703219359563L633.261475,241.5716853031829L633.8211,231.83107701325835L634.441775,244.74680260310848L634.787725,243.95836239422297L636.03925,224.05984750755752L636.2224,228.16303800744902L637.78935,227.66165802885374L639.01035,226.3471855364904L640.06855,205.64241081473867L640.404325,204.6369455759307L641.055525,190.13747040063828L641.1572749999999,174.3401524598579L641.9611000000001,186.9330339133807L642.1137249999999,180.77813289154204L645.105175,187.46768204935995L645.1865750000001,195.66328269873006L645.7869000000001,196.0408891926987L645.92935,173.23623300757114L648.2085500000001,183.23957597190946L648.279775,170.73404561285696L648.320475,171.62896781243694L648.361175,183.66969406633098L649.79585,201.35308176591576L650.131625,201.24005690555956L650.2435499999999,211.08163319772467L651.9326000000001,207.790015282405L652.0852249999999,216.11699561773224L652.2989,218.77414408408194L652.4515250000001,208.60276903431586L653.652175,214.65521381397986L655.94155,216.19991768055309L657.559375,221.4930599096689L657.783225,222.383701200979L658.230925,218.9542368466354L658.5158250000001,222.55529388857855L659.411225,219.96757643755288L660.733975,221.91882510905623L661.1918499999999,222.7240994324113L663.3387749999999,225.92774741646022L664.417325,225.65451146418073L664.44785,244.3591343499912L664.7124,261.3355824535221L665.027825,243.08755432102492L666.84915,243.98337986303508L666.9000249999999,242.51407491462714L666.981425,239.65393271177086L668.629775,241.72657545964213L669.1690500000001,242.94561719618434L671.2040499999999,249.9374726508169L672.4759250000001,245.96908843244205L674.6432,232.15640875800239L674.978975,236.8736535149885L675.4063249999999,236.65039401748615L675.9456,247.9671185430379L676.708725,238.77043465083543L676.8511749999999,212.29138806065836L676.9224,183.76528712010443L677.7364,193.5598583324266L679.557725,198.25184422688423L679.8934999999999,218.00816899283404L681.7148249999999,216.80782465861347L684.767325,223.42025217712649L684.828375,225.95380207657593L686.6497,210.39101746992384L689.458,210.36328909701726L694.901625,214.83489124553373L695.42055,217.74191893738248L696.3770000000001,222.19786806755084L697.5573,219.23961614488388L698.116925,221.82092592847692L698.422175,229.92590771149145L699.2158250000001,241.6459222053336L699.49055,238.34280611787608L699.663525,240.99098271932002L699.9179,244.51943818003934L702.2174500000001,252.07058209872812L702.38025,239.43974764777428L702.4413000000001,246.33521259317942L704.7612,231.84088068986753L705.239425,217.68577973667237L706.4706,218.35745718706707L708.4242,209.1178141751516L708.587,207.35542147502915L708.89225,202.05741813750777L709.573975,203.236445978022L709.716425,201.59536264854106L713.12505,210.25480311546968L714.071325,219.64363200212236L714.132375,238.94286636875142L714.356225,248.44679128683782L715.271975,242.11865896124928L717.083125,245.53275481448392L717.368025,246.6847541921733L718.3143,253.8629585825053L719.0774250000001,270.8756796329724L723.66635,296.71452388557395L724.5108749999999,299.8602386056771L725.2333,306.2697540610941L726.220275,297.1430186416902L726.3423750000001,286.87698049306243L726.88165,281.6864472962035L727.85845,256.9919165450855L729.344,260.00033687907296L734.014325,269.28997262550894L734.8283250000001,260.486753632959L737.8503,254.0116108179027L738.165725,260.97541402854307L738.247125,256.41501601748166L741.49295,251.72629037020653L743.0192000000001,256.76172020024876L745.0134999999999,263.90577800015325L746.41765,244.97136217391306L747.1299,238.3349092040994L747.140075,245.85939524684244L747.994775,258.16041254013925L749.602425,251.4898401297476L750.7216749999999,238.6581131275422L751.576375,240.70459737079574L752.8279,233.30118137452826L753.9471500000001,228.46524350531664L754.710275,226.65918292401233L755.239375,185.85724336906011L758.149425,169.22818233775578L758.2511750000001,167.41051713269326L758.2715250000001,172.18929318431776L759.940225,179.84488693046953L761.995575,171.43162896562555L763.013075,180.51830811177263L763.125,187.14641651796396L763.67445,185.455835725939L765.617875,183.82836891538162L765.9129499999999,188.54135051715446L766.0961,190.43466088188097L766.9406250000001,190.5177497019724L767.70375,195.62486963797923L768.0191749999999,204.0606732809437L768.487225,201.76803917893844L769.2401749999999,196.41770974968733L769.6675250000001,195.7257546520528L770.339075,190.440571896695L772.353725,200.2955441731765L772.7709,195.69060960683947L773.798575,182.5259735839676L776.3321500000001,203.16543349834555L778.7334500000001,198.42476043456637L779.883225,216.82369531565683L781.307725,193.308143414342L782.9458999999999,190.41922020310992L783.2307999999999,176.92711977303014L783.688675,182.60400230998266L787.952,190.87657130719307L788.2979499999999,199.99789438899086L788.6947749999999,195.36732959896662L796.326025,199.71975632711366L796.3362,211.13238229765727L796.509175,229.61127288621728L797.4961500000001,230.47391907275997L798.015075,232.9397347759008L798.8596,233.8964796235785L799.6532500000001,217.0377576871537L803.102575,213.3376541079087L803.7029,205.53594238307224L805.564925,216.58264446353326L805.5750999999999,217.22918318741443L805.707375,221.8891052647698L807.14205,216.5190016079404L807.6508,224.5754571353955L808.454625,217.08022140541323L808.6683,208.29990151839755L810.5608500000001,201.74313546677158L810.835575,199.7843020328727L811.1408250000001,208.05956717025884L811.94465,217.67125779740627L813.135125,213.70182662312823L818.6601499999999,217.63393712454558L818.70085,221.127320362105L819.0162750000001,223.74335785469592L819.382575,230.0184250925523L819.9014999999999,249.10617669141618L820.6748,242.42468016330022L823.310125,247.11242292917504L824.1343,246.69397017133392L826.9426,253.4956372686987L827.36995,241.4197828447589L828.5299,227.4499689049936L829.81195,218.73861147222047L830.0764999999999,210.8564242879911L831.2568,204.9903968260943L832.82375,212.64499991134736L833.39355,223.21675847006054L833.912475,228.39366517521958L834.1363249999999,206.00041617359796L834.4721,216.48018009438576L834.726475,210.15515632935563L836.354475,196.25364927615368L837.148125,189.18003739375254L837.3617999999999,187.28477779117432L837.371975,154.6738167671887L837.392325,155.68364084250413L838.4301750000001,164.57982353708732L838.4607,175.4016331647869L838.8677,178.3156393226398L840.0276499999999,172.8469036996143L841.7065249999999,190.4532210840734L843.2327750000001,194.00873544249967L843.9959,211.54288380778348L844.616575,198.87518484237626L846.346325,207.5675540003133L847.76065,212.08728274137889L852.1359,213.63779775986868L852.553075,214.63328952982914L852.60395,218.47784989432532L853.082175,221.86629902934857L853.692675,220.93724800660164L853.9267,242.41259040040774L854.811925,250.09688442450758L856.602725,248.16286531821748L856.67395,244.1604643342676L863.5013749999999,245.80048100508185L863.867675,251.28340050064185L866.2995000000001,244.4393746183896L866.6149250000001,229.51720262872934L869.647075,234.6909551989519L869.8302249999999,235.82133584028708L870.644225,230.72801662031216L871.2750749999999,245.4070770595317L871.966975,246.3860023630245L874.3173999999999,252.04925736663023L874.3377499999999,252.26112087553366L875.6197999999999,250.46660459592542L876.057325,244.4468791679232L877.26815,249.33026271676837L879.435425,266.78123452808404L879.95435,272.34439534666956L881.41955,280.87260255600677L881.897775,284.4964335862343L882.2233749999999,268.8794807316962L883.0882499999999,264.7916897505323L884.2685499999999,276.99069492394267L884.339775,271.69972571274707L884.4517000000001,267.8445512808986L885.967775,277.10668019442846L887.23965,277.2910154869341L888.5217,271.9240023933143L889.9055,286.9539322287455L890.61775,274.8555660230848L891.767525,276.33257484087284L893.38535,275.44017049464395L894.3926749999999,277.38003964792586L896.346275,271.3379719936855L896.773625,267.1960020040567L897.5164,259.4786188560316L898.096375,229.90488918865452L903.285625,228.00642184833774L903.977525,236.4438291234128L904.761,239.44880675016563L904.90345,274.0620530030776L905.3002749999999,274.397272293617L905.625875,268.8645249812205L906.7553,270.88861178229524L908.719075,253.16012153723935L909.42115,252.19043932644087L909.8281499999999,246.76699708402163L911.6494749999999,243.76020835155256L911.8835,250.02696593416385L912.6568,245.77337075028214L913.8371,248.52529668933315L914.091475,264.42495968554L915.4244,252.38998278748852L915.4956249999999,250.10742400303855L915.72965,254.6778828384154L916.065425,257.8258212063431L916.106125,245.34443863491876L916.7675,252.4380245191548L917.4288750000001,242.89027657205568L919.321425,238.8521213495062L919.71825,233.7846040090939L919.88105,251.09245087238855L921.34625,248.94719287956244L921.6108,245.65917605637094L921.9872750000001,236.41837768497106L924.15455,227.53649176124316L924.551375,230.33289771006562L924.571725,232.6988633176529L925.37555,240.98013636648517L925.8842999999999,230.76833051740758L926.077625,223.99230489602937L927.1154750000001,235.4760240172864L929.801675,235.10698559341287L930.9514499999999,231.00059387384204L931.3075749999999,235.11824831893105L935.6116,233.24332041265583L936.914,247.7176881053539L938.6437500000001,246.1886563770408L940.4854250000001,240.71951095282125L941.055225,219.8466615910708L941.45205,219.40781407055988L942.6934,224.90746917621183L943.110575,227.56127427843975L943.5888000000001,205.95431054651223L943.93475,230.0842461809134L944.555425,232.3229011815132L944.738575,242.07766041194304L945.5017,222.59345520278345L947.038125,194.060691727342L947.567225,183.50601157999847L948.9917250000001,176.12155767565721L951.46425,195.70255817789155L954.0283499999999,196.24308521571433L955.666525,197.8167819815788L956.1549249999999,209.0054211447373L958.128875,212.58331304881105L958.454475,213.06854237046636L958.5358749999999,221.94552631425634L959.044625,238.61604050527936L960.45895,226.45261794159038L960.611575,216.32126431235505L961.2831249999999,211.77105629084662L962.5651750000001,213.54840185819828L963.43005,203.78412320712613L963.9795,207.84972598673352L964.77315,203.35162920329955L966.218,208.55172162420504L966.8285,219.4048029977441L966.9913,232.81790209103343L967.1541000000001,221.99103440265938L967.5305750000001,223.92793976049077L968.344575,234.69431216636676L969.097525,234.58032544433337L969.881,234.5268102918384L971.7939,227.12804560359157L972.109325,215.86456570305546L972.4451,239.23775688035494L973.0963,233.87297644213865L973.493125,236.21238908183872L973.60505,229.44112819623413L974.246075,225.11103683958893L976.647375,210.86963169067516L976.94245,218.04375992836287L977.624175,217.06415450989658L981.3991,227.52263046176168L982.976225,225.80351515622644L983.33235,235.09719945695906L983.4035749999999,234.37733829767348L984.7365,236.22647350934926L984.868775,235.8709643629596L985.336825,238.3046050966364L985.601375,228.74512921755934L986.150825,227.64624558892265L987.0564,216.77489735851665L990.973775,213.3449248896283L991.55375,201.51078027507245L992.6323,204.8256426271913L993.2936750000001,207.18831493806377L993.75155,212.87098220272492L995.287975,212.1196670111452L995.410075,199.68409308517346L997.445075,203.18077389721185L998.096275,198.41639442561143L998.4117,201.67011518488766L998.543975,202.29502514433995L1000.9554499999999,205.65273502857235L1001.637175,215.5029169205842L1004.00795,217.23828465341575L1004.94405,207.84373102432795L1005.4426249999999,210.84850235125185L1006.5313500000001,184.86834896446857L1008.942825,190.58494317071003L1009.99085,190.32434840392955L1010.855725,188.21814575315756L1011.0185250000001,189.80575515935615L1014.9053749999999,209.4097648072077L1015.07835,215.9619383736551L1016.207775,218.7246013621153L1016.4011,195.9125793735747L1017.225275,188.70359402355015L1017.795075,192.77607086942018L1017.8561249999999,187.24480465258694L1019.911475,194.39833153545413L1020.6135499999999,191.0688714682848L1020.7458250000001,190.26904850945917L1022.0787499999999,200.9704714315267L1026.8609999999999,198.16574384011096L1028.42795,202.34919726229842L1028.63145,221.24797578759478L1030.7275,218.42108449002285L1031.7246499999999,215.7916232047805L1032.202875,211.2903749208095L1032.49795,210.86968432421807L1034.0242,215.9733973603006L1034.2277,216.0700747851966L1034.258225,224.7093867004212L1034.889075,222.4709942919767L1035.1231,237.95167778260793L1035.1536250000001,233.63395232559276L1037.1988000000001,234.55481243475438L1037.941575,247.98254197630047L1038.80645,238.64257118867687L1039.071,239.99791762346732L1040.35305,238.69136078791723L1040.994075,244.6713273326317L1044.42305,231.53152097660066L1045.267575,250.0774570894908L1045.8679,254.86010112495913L1045.88825,248.27683275885124L1046.203675,249.88137938807765L1046.9261000000001,244.52024017253214L1049.3070500000001,232.87360583565777L1050.294025,234.4253255520487L1052.817425,236.3141456010557L1054.872775,237.22221569176108L1057.192675,226.69721053161828L1058.820675,221.44932262252317L1062.0665,222.8708480083178L1062.4328,216.32531307347327L1062.5142,216.54931077942837L1063.6538,228.33422277551657L1064.04045,227.77130245909498L1066.1772,224.0921125560077L1067.2659250000002,212.58039371678584L1068.68025,217.0717491789134L1068.954975,197.68442735697784L1070.2472,195.0340751204033L1071.641175,203.36141826383331L1072.210975,207.21049464629448L1072.536575,208.46667023287299L1073.259,209.58986635478965L1073.635475,212.43998570321492L1077.1254999999999,199.22608243343387L1078.0310749999999,196.8862516007303L1078.2651,205.67893684550307L1078.8756,205.184065367464L1078.957,198.59583625882593L1079.8117,183.8703330631934L1081.6126749999999,187.43471875180032L1082.426675,209.85275156755011L1083.281375,202.85264516392908L1083.688375,201.9051252994958L1083.993625,207.0491388843089L1084.655,210.13830251324643L1084.9805999999999,209.1692525904589L1088.90815,208.024818791772L1090.3123,210.99927615158256L1091.0245499999999,219.22234273205484L1091.7368,212.76498787634836L1092.12345,226.2362334254881L1092.9578,224.02332280515657L1093.4054999999998,227.62591626152565L1094.016,228.44006974172214L1094.7893,234.9155639236167L1095.369275,240.7159029383754L1096.27485,229.62039122106862L1096.793775,211.71549093395396L1096.8243,223.51665073518322L1097.6383,215.33054634678595L1098.75755,216.9974769686992L1098.8593,225.9340242691569L1100.3143249999998,232.76017849509782L1101.0571,242.16502925179455L1103.0107,246.76870597483074L1103.72295,204.5029051971418L1104.2215250000002,197.7700061628707L1104.404675,201.8358775757037L1105.055875,204.00671572743727L1106.57195,203.3573727287975L1108.97325,204.64116036439083L1109.634625,198.05698572738112L1111.82225,195.14823984830983L1114.22355,198.39563783913655L1114.437225,192.27885774183216L1115.3020999999999,198.8957172866682L1115.32245,197.52473871556626L1118.0697,204.94820034038685L1119.056675,212.09958919091528L1119.239825,207.47044552399385" style="fill: none;" fill="none"></path></g></g></g></g><g opacity="0.2"><g><g><g><path stroke="rgb(255, 112, 67)" stroke-width="2px" d="M104.52777499999999,-5.472176313400212L104.90425,125.15840864181521L104.98564999999999,82.53668045997625L106.57295,86.1624101400376L107.2038,141.99312722682953L107.64132500000001,63.83001065254217L107.71255,215.13412660360336L108.20094999999999,89.03392946720129L108.333225,139.4342193603516L109.01495000000001,118.54546523094183L109.9714,156.08666574954987L112.06745,106.70149004459387L112.59655000000001,166.23341417312622L115.31327499999999,178.6922482252121L115.353975,179.78069937229156L115.842375,200.48064744472504L115.91359999999999,173.4495005607605L116.3613,224.24666619300842L118.955925,221.16166985034943L119.39345,135.79271829128268L119.423975,267.73920035362244L120.848475,104.11253204941755L121.255475,168.19703659415245L122.4663,152.86952769756317L123.0768,144.4985250234604L124.124825,175.86781775951385L124.76585,214.63637030124664L125.223725,271.2082300186157L126.05807499999999,155.0468806028366L126.5363,133.59159564971927L127.034875,125.2750042676926L127.04505,239.76413583755493L127.16715,142.19240999221802L127.51310000000001,224.47613990306854L129.069875,192.51992619037628L129.6295,207.70033872127533L132.66165,305.6916961669922L134.61525,244.68954062461853L134.77805,198.57704079151154L135.378375,176.88642418384552L138.56315,237.15667462348938L138.58350000000002,228.02718079090118L139.09225,235.90093410015106L139.814675,200.5516186952591L140.55745000000002,212.97598099708557L140.628675,181.696359872818L141.7174,251.32805621623993L142.0023,229.19696724414825L142.81629999999998,249.62474620342255L144.4443,197.82919532060623L145.675475,158.97012627124786L146.51999999999998,210.99700963497162L147.4561,213.18686699867249L147.629075,149.54390501976013L149.3283,206.89565992355347L150.46790000000001,147.81400895118713L152.329925,214.6985546350479L153.70355,232.19758665561676L153.98844999999997,255.47446703910828L156.13537499999998,175.84438598155975L156.277825,215.2535948753357L158.211075,207.1804461479187L159.53382499999998,248.80530989170074L159.981525,216.03303945064545L160.84640000000002,241.6658837199211L161.4162,187.3589644432068L161.487425,247.56173586845398L161.853725,232.18260383605957L162.69825,245.16876554489136L164.835,168.2643043845892L165.028325,234.90913903713226L165.740575,197.85212016105652L168.64045,229.77059519290924L168.935525,241.67720532417297L169.91232499999998,196.51673412322998L170.03442500000003,254.61695408821106L171.48944999999998,249.22606801986694L172.62905,143.98049122095108L174.552125,219.680060505867L176.86185,180.7041141986847L177.6555,213.1922180056572L177.68602499999997,275.93964672088623L178.17442499999999,261.57990968227386L180.9929,257.7055553197861L181.09465000000003,233.73709952831268L181.45077500000002,244.80579829216003L183.058425,238.19916343688965L183.82154999999997,211.93337953090668L184.98149999999998,219.29005658626556L185.39867500000003,305.7748902440071L186.843525,239.2522416114807L186.98597500000002,243.42822378873825L188.21715,225.86897885799408L188.3189,157.7393946647644L189.265175,279.5501119494438L192.08365,192.4957058429718L192.5924,214.18035185337067L192.663625,196.15579462051392L193.253775,256.8782333135605L195.97050000000002,276.0129836797714L198.0869,202.5643858909607L198.96195,239.41198325157166L199.094225,149.6233815550804L200.42714999999998,271.0800311565399L201.902525,267.378373503685L202.553725,202.8884316086769L206.30829999999997,270.60981845855713L206.379525,205.0500694513321L207.55982500000002,242.44256830215454L208.37382499999998,245.8597776889801L208.81135,247.71494364738464L209.676225,232.26337587833405L211.202475,206.98541602492332L211.4365,188.98229098320007L212.67785,286.7957696914673L212.708375,230.73557889461517L213.32905,190.41196739673615L213.41045000000003,216.0438541173935L213.8785,192.69972002506256L214.71285,316.1750510931015L217.938325,238.60809302330017L218.4776,267.26693174242973L219.0881,260.661226272583L219.43404999999998,274.7725639343262L220.64487499999998,244.08552458882332L221.39782499999998,235.91276264190674L223.534575,47.217640489339885L223.58545,249.47638249397278L225.5187,211.52873075008392L226.80075,216.5826160311699L230.677425,240.9939662218094L232.773475,239.632670044899L233.40432500000003,138.4888935685158L234.37095000000002,271.664304792881L234.645675,226.46953082084656L235.134075,198.6753866672516L238.11535,174.16214203834534L239.58055000000002,265.90070700645447L240.09947499999998,238.427060008049L240.3335,224.08182701468468L242.26675,245.93300199508667L243.0197,160.93467807769775L245.01399999999998,226.75814723968506L246.448675,235.12746012210846L247.19145,241.336092710495L247.63915,268.69353836774826L248.748225,222.51339054107666L250.69165,233.31521487236023L250.9969,259.9349538087845L251.190225,200.77382630109787L252.12632499999998,247.8287229537964L252.43157499999998,259.8807678222656L253.082775,267.41667544841766L253.27609999999999,181.85587620735168L257.6717,229.89586508274078L259.187775,252.87646865844727L259.208125,264.1423097848892L259.533725,230.0855723619461L261.9045,230.41812336444855L262.1487,173.62946337461472L265.7303,225.37341928482056L267.083575,238.95044481754303L267.816175,206.87741017341614L271.641975,281.2800643444061L272.781575,189.18596720695496L273.269975,191.42925015091896L273.697325,225.15363371372223L275.39655,274.07411670684814L275.711975,193.1074104309082L277.6961,238.90053963661194L277.950475,204.69149565696716L278.174325,241.43455123901367L280.250025,200.82806861400604L280.392475,226.23825466632843L280.68755,242.8503713607788L280.76894999999996,209.71496468782425L285.561375,194.1597000360489L289.488925,281.52063435316086L294.64765,229.1087601184845L296.25530000000003,238.0583474636078L296.794575,261.59579372406006L297.832425,236.95423758029938L300.47792499999997,241.20293712615967L301.587,234.05917382240295L301.72945000000004,236.90545892715454L302.512925,213.81287848949432L303.68305,214.13337564468384L304.61915,241.59474349021912L305.199125,173.68517017364502L305.606125,163.00275778770447L305.78927500000003,97.98489680886274L305.88085,151.33052176237106L306.65414999999996,-257.85304033756245L308.536525,-90.58422321081156L309.727,130.53417107462886L310.734325,127.99252724647525L310.7445,321.8402466773987L310.96835,161.7914024591446L311.13115000000005,335.6176815032959L313.176325,152.14325523376465L313.20685000000003,250.42976295948029L313.705425,219.39772447943687L313.94962499999997,439.1654119491577L316.23900000000003,226.80534875392914L316.8902,451.48624634742737L317.551575,303.3444628715515L317.7856,339.67002725601196L318.67082500000004,317.94764256477356L319.403425,168.7676510810852L320.74652499999996,341.0734555721283L324.0534,96.72980403900152L325.66105,277.12520456314087L328.092875,4.732137680053768L328.5711,16.779676437377987L328.95775000000003,171.99267482757568L329.24265,450.98629331588745L330.4026,156.40806412696838L334.147,299.7169025838375L337.17915,163.24811553955078L337.2809,-28.024811983108464L337.72860000000003,121.3633618354798L337.99315,262.85530811548233L338.451025,141.1181530952454L338.68505,208.519211769104L339.44817500000005,13.869855165481624L340.119725,213.55343914031982L341.26950000000005,321.53647845983505L342.59225000000004,240.52034577727318L342.704175,98.0737516880036L342.907675,315.8926305770874L345.31915,292.4107221364975L346.75382499999995,311.89120388031006L347.44572500000004,393.3152804374695L348.81935,119.67447137832647L348.8397,161.95441102981567L349.22634999999997,297.79034292697906L349.460375,327.5026259422302L352.268675,-46.63392448425287L353.265825,205.25588607788086L353.347225,147.60976946353912L355.117675,287.2961733341217L355.45345000000003,34.78035128116613L356.20640000000003,317.8143743276596L356.60322499999995,-281.1323990821837L357.478275,69.71814608573919L358.699275,372.4729392528534L359.5031,149.4420669078827L360.103425,124.29571366310122L363.10505,118.39248275756842L364.3871,-11.423171997070256L364.743225,291.6272220611572L365.496175,28.10849046707159L366.97155,225.54251110553741L367.225925,247.8185842037201L367.87712500000004,487.48534297943115L369.383025,-63.98943686485285L370.400525,7.798996925354061L371.08225,34.18723440170294L374.409475,160.65000450611115L374.41965,193.64769315719604L374.735075,194.5517317056656L377.91985,-61.328352928161564L378.04195,96.8163213729859L378.08265,175.414165019989L378.09282499999995,180.44760382175446L379.26295,160.26011323928833L381.613375,219.3185577392578L382.610525,137.64788424968722L382.7835,274.5999798774719L382.96664999999996,129.39764535427096L384.869375,331.4625964164734L385.7953,204.42743754386902L386.14124999999996,206.67611373960972L386.3244,394.934326171875L389.916175,366.0373113155365L391.10665000000006,200.6873864158988L391.238925,243.04323291778564L392.175025,179.2787185907364L392.4701,203.44848489761353L392.866925,267.44630312919617L396.51975,270.33945178985596L396.78430000000003,436.6721806526184L397.20147499999996,242.1705681681633L397.45585,456.85482716560364L398.870175,271.5461883544922L399.50102499999997,340.2718183994293L401.617425,160.05654966831207L401.78022500000003,141.93871593475342L402.53317499999997,139.9810359477997L403.041925,203.82947659492493L404.425725,268.10216760635376L405.26007500000003,198.22922533750534L407.05087499999996,170.2001438140869L407.315425,311.4021781682968L407.9361,128.7184617519379L408.77045,358.43730425834656L409.47252499999996,-41.51633405685419L409.8897,74.57888817787176L410.327225,199.73195707798004L411.670325,270.4595396518707L411.78225,225.04447317123413L413.22709999999995,344.7515687942505L414.18355,194.4231948852539L414.32599999999996,269.1211119890213L421.30605,212.3913694024086L421.682525,330.11112919449806L424.2568,271.09805560112L425.39639999999997,216.43667435646057L426.057775,-157.41125965118397L426.12899999999996,151.58629989624023L426.69879999999995,226.35711742937565L426.790375,269.71839702129364L427.3907,186.8299469947815L427.52297500000003,84.58651041984564L429.12045,217.7310829460621L429.456225,-14.865840911865178L431.77612500000004,136.83464384078982L432.86485,154.21539044380188L434.034975,121.05289077758795L434.53355,252.49592757225037L435.10335,247.8203866481781L436.44644999999997,278.2192883491516L436.52785,258.81163662672043L437.87095,328.2427546977997L439.0716,408.25439071655273L439.346325,1.6481552124024006L439.366675,182.38647079467773L440.282425,253.18806624412537L440.99467500000003,202.4172613620758L441.340625,169.27075839042664L441.62552500000004,126.6765174865723L444.93240000000003,325.25956830382347L445.023975,330.1278862953186L445.146075,89.11965823173529L445.3394,44.40439081192022L445.512375,289.961763381958L446.061825,309.82853150367737L446.183925,267.86604738235474L446.43829999999997,423.61977910995483L446.814775,204.64868760108948L447.872975,136.6011146306992L448.0663,21.59310436248785L449.134675,519.1867361068726L451.38334999999995,218.1433076262474L451.59702500000003,184.3292806148529L452.15665,181.36414682865143L453.041875,308.0979595184326L453.794825,273.2287702560425L455.66702499999997,220.75651413202286L461.263275,231.5018712580204L461.47695,34.71332287788397L461.55835,419.87001872062683L461.71097499999996,-210.15078449249256L462.789525,152.55443787574768L463.705275,323.9252243041992L465.719925,276.8778190612793L465.79115,-2.6089932918548016L466.513575,326.326868891716L467.571775,121.89102745056158L467.74475,104.79281401634222L468.426475,375.0218210220337L470.55305000000004,260.26891297101974L470.848125,257.42679953947663L474.450075,165.95673894882202L474.75532499999997,247.28551125526428L474.94865000000004,209.92917394638062L475.854225,211.50127867609262L476.383325,224.05583238601685L476.69875,218.10100650787354L477.278725,290.1275882720947L479.944575,148.04111695289612L480.28035,289.17702412605286L482.85462500000006,248.13744789361954L483.200575,220.00021970272064L485.99870000000004,218.4159836769104L487.1383,481.66930532455444L490.35360000000003,83.47755646705633L490.913225,162.88199400901794L492.866825,144.45999777317047L493.029625,248.7264529466629L493.14155,3.614171504974422L494.93235,84.30442786216742L495.5225,139.66358041763309L495.72600000000006,160.88432228565216L496.94699999999995,197.87622785568237L498.38167500000003,261.40000319480896L498.625875,188.16195344924927L500.00967499999996,449.19579005241394L500.986475,259.9019465446472L501.5868,265.3381190299988L501.69872499999997,49.88990521430975L505.71785,-167.41392517089832L506.00275,255.5875422656536L506.521675,258.2594690322876L507.50865000000005,249.52527379989624L507.824075,178.77437210083008L507.87494999999996,182.99119091033936L508.9535,256.62887638807297L511.76180000000005,364.37534487247467L513.8375,308.65992790460587L515.333225,-103.39109802246088L515.496025,293.8914302587509L515.536725,395.2175352573395L515.8725,243.50026524066925L516.076,511.80662727355957L516.818775,498.34822511672974L519.332,56.59252023696905L520.2274,178.57727198302746L521.4077,-7.862217664718571L522.394675,421.65579056739807L523.086575,230.87898588180542L523.920925,182.8141007423401L524.409325,382.2915301322937L524.572125,123.07602202892306L527.787425,339.88158917427063L529.232275,148.42120742797852L530.46345,219.24488282203674L531.5827,304.52213501930237L532.549325,325.36582803726196L533.67875,272.83257043361664L533.8619,298.2845506668091L535.99865,-117.68177890777582L538.9087000000001,247.42272233963013L539.081675,351.6262046098709L539.4785,590.8929333686829L542.10365,202.7482352256775L544.54565,-394.34934282302856L544.9017749999999,243.93890699744225L545.451225,149.43350529670715L545.776825,107.16663336753851L546.509425,236.75563073158264L546.78415,50.941969513893184L546.8248500000001,201.55614352226257L547.465875,-287.4729480743407L549.2465,334.0137312412262L549.378775,40.764354228973446L550.192775,-88.65025663375849L550.233475,18.93742775917059L550.599775,59.86530876159674L551.485,149.1972724199295L551.556225,49.74953985214239L552.003925,54.228614330291805L552.5432,-46.943719625472966L555.402375,-165.5384817123412L556.012875,325.2180275917053L557.61035,293.4630117416382L557.7528,371.2401798963547L559.2587,192.60340189933777L560.6831999999999,193.4649703502655L562.7792499999999,211.21994948387146L562.8708250000001,175.90442991256714L563.4100999999999,130.58917379379275L564.783725,-133.4130635261535L566.32015,398.6252818107605L568.161825,275.63114708662033L570.135775,239.42761382460594L570.71575,209.6188155412674L571.519575,283.8325422015041L571.8858749999999,422.4526963233948L573.03565,230.09852743148804L573.19845,109.7371444702149L574.002275,400.86459374427795L574.877325,193.08454191684723L581.98965,239.22575764730573L582.4271749999999,320.4910043478012L583.0376749999999,-262.3610665798186L583.241175,33.0940518379212L584.421475,292.5268671512604L584.950575,228.12901890277863L585.561075,478.7975606918335L585.927375,201.65595388412476L586.46665,11.772936344146785L586.639625,324.49074125289917L586.782075,270.3600672483444L587.026275,180.47193682193756L587.148375,418.29896306991577L587.5452,-9.83702087402338L587.68765,185.66196298599243L588.94935,339.4867411851883L589.610725,280.373957561329L589.84475,52.020619869232235L590.9233,143.8996628522873L591.991675,243.6082992553711L592.459725,372.6489028930664L595.46135,176.69885730743408L598.7377,174.44580173492432L600.14185,233.55809426307678L603.0926,170.52300667762756L603.64205,324.23299169540405L603.896425,252.11109159886837L605.1784749999999,275.2663210630417L606.00265,271.3177285194397L606.623325,379.19966197013855L606.81665,394.79531264305115L610.56105,105.67330813407904L611.0698,169.17725658416748L612.016075,183.79347583651543L612.1788750000001,279.04559648036957L612.484125,156.5300670862198L613.2269,320.9484872817993L614.38685,-159.76480150222767L616.900075,380.11507844924927L616.920425,254.61898183822632L618.833325,31.702339410781917L620.4613250000001,24.22557449340826L622.0384499999999,233.32715606689453L622.984725,258.97610968351364L623.54435,199.24405789375305L624.15485,185.4810426235199L628.30625,237.3831067085266L628.79465,178.46285900473595L628.87605,215.14035066962242L630.38195,182.8547683954239L630.860175,253.31925040483475L631.531725,491.54760217666626L633.261475,472.57957792282104L633.8211,98.3274457454682L634.441775,421.7682180404663L634.787725,233.15209364891052L636.03925,-48.666856527328434L636.2224,284.40088427066803L637.78935,220.7898030281067L639.01035,208.33118019998074L640.06855,-78.13479566574091L640.404325,190.85615730285645L641.055525,-8.590630531310978L641.1572749999999,-42.17602872848505L641.9611000000001,359.5295855998993L642.1137249999999,96.41978359222418L645.105175,279.15385580062866L645.1865750000001,307.99122101068497L645.7869000000001,201.21631937474012L645.92935,-139.3217017650603L648.2085500000001,320.3442177772522L648.279775,-0.6652822494506268L648.320475,183.89466619491577L648.361175,348.6984715461731L649.79585,443.7195131778717L650.131625,199.69095146656036L650.2435499999999,345.96912002563477L651.9326000000001,162.6754873842001L652.0852249999999,330.24560844898224L652.2989,255.1927083581686L652.4515250000001,69.19509923458105L653.652175,297.6093099117279L655.94155,237.37144714593887L657.559375,294.0402445793152L657.783225,234.59072595834732L658.230925,171.95040187239647L658.5158250000001,271.9109580516815L659.411225,184.50062549114227L660.733975,248.6624098420143L661.1918499999999,233.7610945701599L663.3387749999999,269.8365697860718L664.417325,221.90957164764404L664.44785,500.7224950790405L665.027825,-7.017772436141911L666.84915,256.26145935058594L666.9000249999999,222.37595415115356L666.981425,200.45316016674042L668.629775,270.13397312164307L669.1690500000001,259.65365982055664L671.2040499999999,345.76702094078064L672.4759250000001,191.57888120412827L674.6432,42.8414461612702L674.978975,301.52765518426895L675.4063249999999,233.5904256105423L675.9456,403.0728135108948L676.708725,112.72176718711859L676.8511749999999,-150.62730932235706L676.9224,-207.21009635925282L677.7364,327.80309906601906L679.557725,262.55965089797974L679.8934999999999,488.78603196144104L681.7148249999999,200.35604643076658L684.767325,314.04940581321716L684.828375,260.6783389337361L686.6497,-2.910677433013859L689.458,209.98324728012085L694.901625,276.1221442222595L695.42055,257.58529847860336L696.3770000000001,283.2705826163292L697.5573,178.69416332244873L698.116925,257.20005413889885L698.422175,341.01183450222015L699.2158250000001,402.2790620326996L699.49055,193.0706856250763L699.663525,277.2865796685219L699.9179,292.8800336122513L702.2174500000001,355.56567227840424L702.38025,66.32301664352423L702.4413000000001,340.8436439037323L704.7612,33.183272838592586L705.239425,23.677631378173885L706.4706,227.56338930130005L708.4242,82.48035407066351L708.587,183.20027446746826L708.89225,129.44360768795016L709.573975,219.39606285095215L709.716425,179.102867603302L713.12505,328.94007539749146L714.071325,348.32581615448L714.132375,503.4559020996094L714.356225,378.70646810531616L715.271975,155.38602179288864L717.083125,292.3259509205818L717.368025,262.47392213344574L718.3143,352.2465834617615L719.0774250000001,504.0500328540802L723.66635,650.858683347702L724.5108749999999,342.97503447532654L725.2333,394.11781883239746L726.220275,172.05305671691895L726.3423750000001,146.1718693971634L726.88165,210.5456099510193L727.85845,-81.46841669082636L729.344,301.23339204490185L734.014325,396.6126272678375L734.8283250000001,139.83086979389194L737.8503,165.26406517624855L738.165725,356.42048156261444L738.247125,193.91073739528656L741.49295,187.46316826343536L743.0192000000001,325.77672904729843L745.0134999999999,361.8213937282562L746.41765,-14.541513562202397L747.1299,147.37646555900574L747.140075,348.98911571502686L747.994775,426.7567083835602L749.602425,160.0637594461441L750.7216749999999,62.787972450256404L751.576375,268.753469645977L752.8279,131.83083271980288L753.9471500000001,162.18444800376892L754.710275,201.90552907437086L755.239375,-373.369339942932L758.149425,-58.68777179718012L758.2511750000001,142.49781167507172L758.2715250000001,237.68663553893566L759.940225,284.77155415713787L761.995575,56.120505094528255L763.013075,305.0592634677887L763.125,277.99049055576324L763.67445,162.28493428230286L765.617875,161.52250027656555L765.9129499999999,253.1369218826294L766.0961,216.38414999842644L766.9406250000001,191.65655529499054L767.70375,265.6224546432495L768.0191749999999,319.6808055639267L768.487225,170.3454658985138L769.2401749999999,123.08672404289248L769.6675250000001,186.24189949035645L770.339075,118.00247883796698L772.353725,335.366634786129L772.7709,132.57591819763186L773.798575,2.093021035194454L776.3321500000001,486.0474429130554L778.7334500000001,133.44965314865115L779.883225,468.99733221530914L781.307725,-128.9932444095611L782.9458999999999,150.82397854328156L783.2307999999999,-7.994021415710392L783.688675,260.4106864929199L787.952,304.25942873954773L788.2979499999999,325.0136754512787L788.6947749999999,131.90135335922244L796.326025,259.3736050128937L796.3362,367.5524911880493L796.509175,482.88077330589294L797.4961500000001,242.29724621772766L798.015075,266.73591470718384L798.8596,247.00951194763184L799.6532500000001,-14.025901794433537L803.102575,162.62446975708008L803.7029,98.60659933090216L805.564925,367.9874435663223L805.5750999999999,226.09056687355042L805.707375,285.75744903087616L807.14205,142.91699266433716L807.6508,334.9962887763977L808.454625,114.3514022827149L808.6683,87.95787012577063L810.5608500000001,111.87687134742743L810.835575,172.9367614388466L811.1408250000001,321.47937758266926L811.94465,349.4079587459564L813.135125,159.29726994037628L818.6601499999999,271.52698105573654L818.70085,269.00722002983093L819.0162750000001,259.59845995903015L819.382575,316.02375841140747L819.9014999999999,510.72065448760986L820.6748,150.8488748073578L823.310125,311.36207377910614L824.1343,240.9587059020996L826.9426,346.7184863090515L827.36995,75.90954279899603L828.5299,35.981342554092464L829.81195,99.3417713642121L830.0764999999999,102.82409405708319L831.2568,124.5913145542145L832.82375,317.5580892562866L833.39355,368.1120375394821L833.912475,299.3477394282818L834.1363249999999,-100.91882014274591L834.4721,360.11459147930145L834.726475,123.4651247262955L836.354475,5.721229076385555L837.148125,92.2299451231957L837.3617999999999,161.30857264995575L837.371975,-292.2881784439086L837.392325,169.52417081594467L838.4301750000001,286.5098569393158L838.4607,323.7240827679634L838.8677,218.2546648979187L840.0276499999999,97.89305663108831L841.7065249999999,431.76333582401276L843.2327750000001,242.74019694328308L843.9959,451.86385846138L844.616575,25.253193140029964L846.346325,326.70414304733276L847.76065,274.03415313363075L852.1359,234.8889741897583L852.553075,228.2773826122284L852.60395,271.1709419488907L853.082175,268.3079842329025L853.692675,208.20378398895264L853.9267,536.7511067390442L854.811925,355.4169142842293L856.602725,221.65542697906494L856.67395,189.30402731895447L863.5013749999999,268.278356552124L863.867675,326.43165005743504L866.2995000000001,150.63596105575562L866.6149250000001,24.995668888092098L869.647075,305.60179924964905L869.8302249999999,251.314199924469L870.644225,160.91958260536194L871.2750749999999,446.59655249118805L871.966975,259.80303740501404L874.3173999999999,329.6691641807556L874.3377499999999,255.16489720344543L875.6197999999999,225.87117558717728L876.057325,161.9412306547165L877.26815,316.2613431215286L879.435425,505.96220111846924L879.95435,348.5924230366945L881.41955,397.75920724868774L881.897775,334.16423535346985L882.2233749999999,54.835362195968685L883.0882499999999,208.7649074792862L884.2685499999999,444.1888246536255L884.339775,199.18232417106628L884.4517000000001,215.00598406791687L885.967775,404.0523294210434L887.23965,279.8174933195114L888.5217,198.3643523454666L889.9055,492.9523823261261L890.61775,109.03678214550024L891.767525,296.5762839317322L893.38535,263.20898151397705L894.3926749999999,303.9676580429077L896.346275,188.52610355615616L896.773625,210.42664861679077L897.5164,153.70507335662842L898.096375,-175.42917037010182L903.285625,201.9862518310547L903.977525,352.0859405994415L904.761,280.6346765756607L904.90345,748.4671339988708L905.3002749999999,278.9917484521866L905.625875,193.03334122896194L906.7553,298.63050734996796L908.719075,10.175519943237362L909.42115,238.90008902549744L909.8281499999999,172.43393576145172L911.6494749999999,202.54951572418213L911.8835,335.91840809583664L912.6568,187.47409558296204L913.8371,286.2428698539734L914.091475,482.34387016296387L915.4244,87.44000530242926L915.4956249999999,218.82294183969498L915.72965,317.32005393505096L916.065425,300.9710941314697L916.106125,74.27607750892645L916.7675,349.66187810897827L917.4288750000001,112.02996647357946L919.321425,183.50564094632864L919.71825,164.32980751991272L919.88105,488.31176376342773L921.34625,219.54453921318054L921.6108,200.59400430321693L921.9872750000001,109.76508235931402L924.15455,105.80240821838385L924.551375,268.66010865569115L924.571725,265.12650958634913L925.37555,354.4822905063629L925.8842999999999,90.80652093887335L926.077625,131.12089490890506L927.1154750000001,392.87052726745605L929.801675,230.04898837208748L930.9514499999999,174.7188720703125L931.3075749999999,291.55433571338654L935.6116,207.54577910900116L936.914,446.1016688346863L938.6437500000001,225.23192739486694L940.4854250000001,165.76004719734192L941.055225,-66.23415613174433L941.45205,213.39302158355713L942.6934,300.2850950360298L943.110575,263.9340147972107L943.5888000000001,-90.18819236755365L943.93475,560.8063051700592L944.555425,263.00564324855804L944.738575,375.77524280548096L945.5017,-44.45476913452143L947.038125,-197.0060076713561L947.567225,38.84480720758444L948.9917250000001,74.91110122203833L951.46425,464.0774474143982L954.0283499999999,203.65148520469666L955.666525,219.38568471372128L956.1549249999999,362.3555932044983L958.128875,261.62147855758667L958.454475,219.71903836727142L958.5358749999999,343.61242389678955L959.044625,467.1001467704773L960.45895,59.74217927455908L960.611575,77.46212339401251L961.2831249999999,149.40644046664238L962.5651750000001,237.90849110484123L963.43005,69.95606875419622L963.9795,263.5723993778229L964.77315,141.70124387741092L966.218,279.8235765695572L966.8285,368.15585947036743L966.9913,416.6562602519989L967.1541000000001,73.59925961494451L967.5305750000001,250.4749367237091L968.344575,382.2569457292557L969.097525,233.0180368423462L969.881,233.79333790764213L971.7939,125.7214472293854L972.109325,61.48863530159002L972.4451,559.5879653692245L973.0963,160.3439269065857L973.493125,268.2761034965515L973.60505,136.63502311706546L974.246075,165.76331412792206L976.647375,15.678608179092464L976.94245,316.37151753902435L977.624175,203.63779789209366L981.3991,370.86527144908905L982.976225,202.24152302742004L983.33235,362.4753431081772L983.4035749999999,224.51100593805313L984.7365,261.57050317525864L984.868775,230.99839782714844L985.336825,271.659798681736L985.601375,97.72407746315008L986.150825,212.58507585525513L987.0564,67.7734774947167L990.973775,166.3341257572174L991.55375,39.31338644027716L992.6323,250.2587560415268L993.2936750000001,239.5708236694336L993.75155,290.7569511830807L995.287975,201.82222938537598L995.410075,29.24357986450201L997.445075,251.10586973279715L998.096275,133.11636990308764L998.4117,246.26522912085056L998.543975,210.8599675297737L1000.9554499999999,251.6731116771698L1001.637175,350.5083510875702L1004.00795,241.02303063869476L1004.94405,79.08308422565466L1005.4426249999999,252.03154465556145L1006.5313500000001,-171.2125768661498L1008.942825,268.935910820961L1009.99085,186.7526671886444L1010.855725,159.3507800102234L1011.0185250000001,211.5653429031372L1014.9053749999999,478.1000146865845L1015.07835,305.76525843143463L1016.207775,256.5893352627754L1016.4011,-116.74631023406977L1017.225275,89.89808893203741L1017.795075,248.5929594039917L1017.8561249999999,111.433920621872L1019.911475,292.44372940063477L1020.6135499999999,145.43568348884583L1020.7458250000001,179.30676913261414L1022.0787499999999,347.64291501045227L1026.8609999999999,159.7244774401188L1028.42795,259.6871176958084L1028.63145,480.2724108695984L1030.7275,179.6760449409485L1031.7246499999999,179.7525361776352L1032.202875,149.5967954993248L1032.49795,205.10374850034714L1034.0242,285.9242877960205L1034.2277,217.39512419700623L1034.258225,343.11877942085266L1034.889075,191.79185128211975L1035.1231,450.1281044483185L1035.1536250000001,174.45571517944336L1037.1988000000001,247.1760127544403L1037.941575,432.02142333984375L1038.80645,110.63003039360052L1039.071,258.57413640618324L1040.35305,220.78384651243687L1040.994075,326.63204526901245L1044.42305,51.43888092041021L1045.267575,504.26587557792664L1045.8679,320.410457611084L1045.88825,158.04733103513718L1046.203675,271.87310671806335L1046.9261000000001,171.04109680652618L1049.3070500000001,73.24620580673223L1050.294025,255.69301342964172L1052.817425,262.20209097862244L1054.872775,249.66811752319336L1057.192675,82.4427280426026L1058.820675,149.52238833904266L1062.0665,242.35410770773888L1062.4328,126.61298131942752L1062.5142,219.61939698457718L1063.6538,389.856840133667L1064.04045,220.05598282814026L1066.1772,173.66556859016418L1067.2659250000002,54.802129626274166L1068.68025,278.6297387480736L1068.954975,-68.03592467308039L1070.2472,158.7086591720581L1071.641175,317.49500370025635L1072.210975,259.965482711792L1072.536575,225.68366503715515L1073.259,224.9842602610588L1073.635475,251.50338618457317L1077.1254999999999,18.117878794670162L1078.0310749999999,164.8168054819107L1078.2651,326.19044637680054L1078.8756,198.4014151096344L1078.957,108.29834318161016L1079.8117,-17.95568132400507L1081.6126749999999,236.28776966035366L1082.426675,517.1116719245911L1083.281375,106.91001033782965L1083.688375,188.91852951049805L1083.993625,277.5523838996887L1084.655,252.4780157804489L1084.9805999999999,195.88756835460663L1088.90815,192.33934378623962L1090.3123,251.7668387889862L1091.0245499999999,331.9267258644104L1091.7368,124.26124191284183L1092.12345,410.8715400695801L1092.9578,193.693430185318L1093.4054999999998,277.00263833999634L1094.016,239.59876155853271L1094.7893,323.6679253578186L1095.369275,320.2146670818329L1096.27485,77.54661297798162L1096.793775,-33.686965942382756L1096.8243,385.2619585990906L1097.6383,103.13276267051702L1098.75755,239.84423196315765L1098.8593,348.4172902107239L1100.3143249999998,326.31864523887634L1101.0571,371.06680727005005L1103.0107,309.8661575317383L1103.72295,-374.7871878147124L1104.2215250000002,105.48968410491949L1104.404675,257.5622328221798L1105.055875,233.75996804237366L1106.57195,194.45755398273468L1108.97325,222.23660266399384L1109.634625,107.81506276130682L1111.82225,155.28131103515625L1114.22355,242.90409265458584L1114.437225,108.44298934936529L1115.3020999999999,289.5856157541275L1115.32245,178.7342677116394L1118.0697,306.6932920217514L1119.056675,310.11568343639374L1119.239825,144.02394703030586" style="fill: none;" fill="none"></path></g></g></g></g></g></g><g transform="translate(60, 378)" clip-path="url(#clip_1)"><clipPath id="clip_1"><rect width="1221" height="22"></rect></clipPath><g><g><line x1="0" y1="0" x2="0" y2="5" style="visibility: inherit;" fill="rgb(0, 0, 0)" stroke="rgb(204, 204, 204)" stroke-width="1px"></line><line x1="101.75" y1="0" x2="101.75" y2="5" style="visibility: inherit;" fill="rgb(0, 0, 0)" stroke="rgb(204, 204, 204)" stroke-width="1px"></line><line x1="203.5" y1="0" x2="203.5" y2="5" style="visibility: inherit;" fill="rgb(0, 0, 0)" stroke="rgb(204, 204, 204)" stroke-width="1px"></line><line x1="305.25" y1="0" x2="305.25" y2="5" style="visibility: inherit;" fill="rgb(0, 0, 0)" stroke="rgb(204, 204, 204)" stroke-width="1px"></line><line x1="407" y1="0" x2="407" y2="5" style="visibility: inherit;" fill="rgb(0, 0, 0)" stroke="rgb(204, 204, 204)" stroke-width="1px"></line><line x1="508.75" y1="0" x2="508.75" y2="5" style="visibility: inherit;" fill="rgb(0, 0, 0)" stroke="rgb(204, 204, 204)" stroke-width="1px"></line><line x1="610.5" y1="0" x2="610.5" y2="5" style="visibility: inherit;" fill="rgb(0, 0, 0)" stroke="rgb(204, 204, 204)" stroke-width="1px"></line><line x1="712.25" y1="0" x2="712.25" y2="5" style="visibility: inherit;" fill="rgb(0, 0, 0)" stroke="rgb(204, 204, 204)" stroke-width="1px"></line><line x1="814" y1="0" x2="814" y2="5" style="visibility: inherit;" fill="rgb(0, 0, 0)" stroke="rgb(204, 204, 204)" stroke-width="1px"></line><line x1="915.75" y1="0" x2="915.75" y2="5" style="visibility: inherit;" fill="rgb(0, 0, 0)" stroke="rgb(204, 204, 204)" stroke-width="1px"></line><line x1="1017.5" y1="0" x2="1017.5" y2="5" style="visibility: inherit;" fill="rgb(0, 0, 0)" stroke="rgb(204, 204, 204)" stroke-width="1px"></line><line x1="1119.25" y1="0" x2="1119.25" y2="5" style="visibility: inherit;" fill="rgb(0, 0, 0)" stroke="rgb(204, 204, 204)" stroke-width="1px"></line><line x1="1221" y1="0" x2="1221" y2="5" style="visibility: inherit;" fill="rgb(0, 0, 0)" stroke="rgb(204, 204, 204)" stroke-width="1px"></line></g><g transform="translate(0, 8)"><text x="0" y="0" dx="0em" dy="0.95em" style="text-anchor: middle; visibility: hidden; font-family: &quot;Helvetica Neue&quot;, sans-serif; font-size: 12px; font-weight: 200;" fill="rgb(50, 49, 63)" stroke="none" stroke-width="1px">-100k</text><text x="101.75" y="0" dx="0em" dy="0.95em" style="text-anchor: middle; visibility: inherit; font-family: &quot;Helvetica Neue&quot;, sans-serif; font-size: 12px; font-weight: 200;" fill="rgb(50, 49, 63)" stroke="none" stroke-width="1px">0</text><text x="203.5" y="0" dx="0em" dy="0.95em" style="text-anchor: middle; visibility: inherit; font-family: &quot;Helvetica Neue&quot;, sans-serif; font-size: 12px; font-weight: 200;" fill="rgb(50, 49, 63)" stroke="none" stroke-width="1px">100k</text><text x="305.25" y="0" dx="0em" dy="0.95em" style="text-anchor: middle; visibility: inherit; font-family: &quot;Helvetica Neue&quot;, sans-serif; font-size: 12px; font-weight: 200;" fill="rgb(50, 49, 63)" stroke="none" stroke-width="1px">200k</text><text x="407" y="0" dx="0em" dy="0.95em" style="text-anchor: middle; visibility: inherit; font-family: &quot;Helvetica Neue&quot;, sans-serif; font-size: 12px; font-weight: 200;" fill="rgb(50, 49, 63)" stroke="none" stroke-width="1px">300k</text><text x="508.75" y="0" dx="0em" dy="0.95em" style="text-anchor: middle; visibility: inherit; font-family: &quot;Helvetica Neue&quot;, sans-serif; font-size: 12px; font-weight: 200;" fill="rgb(50, 49, 63)" stroke="none" stroke-width="1px">400k</text><text x="610.5" y="0" dx="0em" dy="0.95em" style="text-anchor: middle; visibility: inherit; font-family: &quot;Helvetica Neue&quot;, sans-serif; font-size: 12px; font-weight: 200;" fill="rgb(50, 49, 63)" stroke="none" stroke-width="1px">500k</text><text x="712.25" y="0" dx="0em" dy="0.95em" style="text-anchor: middle; visibility: inherit; font-family: &quot;Helvetica Neue&quot;, sans-serif; font-size: 12px; font-weight: 200;" fill="rgb(50, 49, 63)" stroke="none" stroke-width="1px">600k</text><text x="814" y="0" dx="0em" dy="0.95em" style="text-anchor: middle; visibility: inherit; font-family: &quot;Helvetica Neue&quot;, sans-serif; font-size: 12px; font-weight: 200;" fill="rgb(50, 49, 63)" stroke="none" stroke-width="1px">700k</text><text x="915.75" y="0" dx="0em" dy="0.95em" style="text-anchor: middle; visibility: inherit; font-family: &quot;Helvetica Neue&quot;, sans-serif; font-size: 12px; font-weight: 200;" fill="rgb(50, 49, 63)" stroke="none" stroke-width="1px">800k</text><text x="1017.5" y="0" dx="0em" dy="0.95em" style="text-anchor: middle; visibility: inherit; font-family: &quot;Helvetica Neue&quot;, sans-serif; font-size: 12px; font-weight: 200;" fill="rgb(50, 49, 63)" stroke="none" stroke-width="1px">900k</text><text x="1119.25" y="0" dx="0em" dy="0.95em" style="text-anchor: middle; visibility: inherit; font-family: &quot;Helvetica Neue&quot;, sans-serif; font-size: 12px; font-weight: 200;" fill="rgb(50, 49, 63)" stroke="none" stroke-width="1px">1M</text><text x="1221" y="0" dx="0em" dy="0.95em" style="text-anchor: middle; visibility: hidden; font-family: &quot;Helvetica Neue&quot;, sans-serif; font-size: 12px; font-weight: 200;" fill="rgb(50, 49, 63)" stroke="none" stroke-width="1px">1.1M</text></g><line x1="0" y1="0" x2="1221" y2="0" fill="rgb(0, 0, 0)" stroke="rgb(204, 204, 204)" stroke-width="1px"></line></g></g></g></g></svg>