<svg viewBox="0 0 1281 400" xmlns="http://www.w3.org/2000/svg"><g><g><g><g><g><line x1="50" y1="378" x2="45" y2="378" style="visibility: inherit;" fill="rgb(0, 0, 0)" stroke="rgb(204, 204, 204)" stroke-width="1px"></line><line x1="50" y1="330.75" x2="45" y2="330.75" style="visibility: inherit;" fill="rgb(0, 0, 0)" stroke="rgb(204, 204, 204)" stroke-width="1px"></line><line x1="50" y1="283.5" x2="45" y2="283.5" style="visibility: inherit;" fill="rgb(0, 0, 0)" stroke="rgb(204, 204, 204)" stroke-width="1px"></line><line x1="50" y1="236.25" x2="45" y2="236.25" style="visibility: inherit;" fill="rgb(0, 0, 0)" stroke="rgb(204, 204, 204)" stroke-width="1px"></line><line x1="50" y1="189" x2="45" y2="189" style="visibility: inherit;" fill="rgb(0, 0, 0)" stroke="rgb(204, 204, 204)" stroke-width="1px"></line><line x1="50" y1="141.75" x2="45" y2="141.75" style="visibility: inherit;" fill="rgb(0, 0, 0)" stroke="rgb(204, 204, 204)" stroke-width="1px"></line><line x1="50" y1="94.5" x2="45" y2="94.5" style="visibility: inherit;" fill="rgb(0, 0, 0)" stroke="rgb(204, 204, 204)" stroke-width="1px"></line><line x1="50" y1="47.25" x2="45" y2="47.25" style="visibility: inherit;" fill="rgb(0, 0, 0)" stroke="rgb(204, 204, 204)" stroke-width="1px"></line><line x1="50" y1="0" x2="45" y2="0" style="visibility: inherit;" fill="rgb(0, 0, 0)" stroke="rgb(204, 204, 204)" stroke-width="1px"></line></g><g transform="translate(40, 0)"><text x="0" y="378" dx="0em" dy="0.3em" style="text-anchor: end; visibility: hidden; font-family: &quot;Helvetica Neue&quot;, sans-serif; font-size: 12px; font-weight: 200;" fill="rgb(50, 49, 63)" stroke="none" stroke-width="1px">-2</text><text x="0" y="330.75" dx="0em" dy="0.3em" style="text-anchor: end; visibility: inherit; font-family: &quot;Helvetica Neue&quot;, sans-serif; font-size: 12px; font-weight: 200;" fill="rgb(50, 49, 63)" stroke="none" stroke-width="1px">-1.5</text><text x="0" y="283.5" dx="0em" dy="0.3em" style="text-anchor: end; visibility: inherit; font-family: &quot;Helvetica Neue&quot;, sans-serif; font-size: 12px; font-weight: 200;" fill="rgb(50, 49, 63)" stroke="none" stroke-width="1px">-1</text><text x="0" y="236.25" dx="0em" dy="0.3em" style="text-anchor: end; visibility: inherit; font-family: &quot;Helvetica Neue&quot;, sans-serif; font-size: 12px; font-weight: 200;" fill="rgb(50, 49, 63)" stroke="none" stroke-width="1px">-0.5</text><text x="0" y="189" dx="0em" dy="0.3em" style="text-anchor: end; visibility: inherit; font-family: &quot;Helvetica Neue&quot;, sans-serif; font-size: 12px; font-weight: 200;" fill="rgb(50, 49, 63)" stroke="none" stroke-width="1px">0</text><text x="0" y="141.75" dx="0em" dy="0.3em" style="text-anchor: end; visibility: inherit; font-family: &quot;Helvetica Neue&quot;, sans-serif; font-size: 12px; font-weight: 200;" fill="rgb(50, 49, 63)" stroke="none" stroke-width="1px">0.5</text><text x="0" y="94.5" dx="0em" dy="0.3em" style="text-anchor: end; visibility: inherit; font-family: &quot;Helvetica Neue&quot;, sans-serif; font-size: 12px; font-weight: 200;" fill="rgb(50, 49, 63)" stroke="none" stroke-width="1px">1</text><text x="0" y="47.25" dx="0em" dy="0.3em" style="text-anchor: end; visibility: inherit; font-family: &quot;Helvetica Neue&quot;, sans-serif; font-size: 12px; font-weight: 200;" fill="rgb(50, 49, 63)" stroke="none" stroke-width="1px">1.5</text><text x="0" y="0" dx="0em" dy="0.3em" style="text-anchor: end; visibility: hidden; font-family: &quot;Helvetica Neue&quot;, sans-serif; font-size: 12px; font-weight: 200;" fill="rgb(50, 49, 63)" stroke="none" stroke-width="1px">2</text></g><line x1="50" y1="0" x2="50" y2="378" fill="rgb(0, 0, 0)" stroke="rgb(204, 204, 204)" stroke-width="1px"></line></g></g><g transform="translate(50, 0)" clip-path="url(#clip_0)"><clipPath id="clip_0"><rect width="1231" height="378"></rect></clipPath><g><g><g><line x1="0" y1="0" x2="0" y2="378" fill="rgb(0, 0, 0)" stroke="rgb(60, 60, 60)" stroke-width="1px" opacity="0.25"></line><line x1="102.58333333333333" y1="0" x2="102.58333333333333" y2="378" fill="rgb(0, 0, 0)" stroke="rgb(60, 60, 60)" stroke-width="1px" opacity="0.25"></line><line x1="205.16666666666666" y1="0" x2="205.16666666666666" y2="378" fill="rgb(0, 0, 0)" stroke="rgb(60, 60, 60)" stroke-width="1px" opacity="0.25"></line><line x1="307.75" y1="0" x2="307.75" y2="378" fill="rgb(0, 0, 0)" stroke="rgb(60, 60, 60)" stroke-width="1px" opacity="0.25"></line><line x1="410.3333333333333" y1="0" x2="410.3333333333333" y2="378" fill="rgb(0, 0, 0)" stroke="rgb(60, 60, 60)" stroke-width="1px" opacity="0.25"></line><line x1="512.9166666666667" y1="0" x2="512.9166666666667" y2="378" fill="rgb(0, 0, 0)" stroke="rgb(60, 60, 60)" stroke-width="1px" opacity="0.25"></line><line x1="615.5" y1="0" x2="615.5" y2="378" fill="rgb(0, 0, 0)" stroke="rgb(60, 60, 60)" stroke-width="1px" opacity="0.25"></line><line x1="718.0833333333334" y1="0" x2="718.0833333333334" y2="378" fill="rgb(0, 0, 0)" stroke="rgb(60, 60, 60)" stroke-width="1px" opacity="0.25"></line><line x1="820.6666666666666" y1="0" x2="820.6666666666666" y2="378" fill="rgb(0, 0, 0)" stroke="rgb(60, 60, 60)" stroke-width="1px" opacity="0.25"></line><line x1="923.25" y1="0" x2="923.25" y2="378" fill="rgb(0, 0, 0)" stroke="rgb(60, 60, 60)" stroke-width="1px" opacity="0.25"></line><line x1="1025.8333333333335" y1="0" x2="1025.8333333333335" y2="378" fill="rgb(0, 0, 0)" stroke="rgb(60, 60, 60)" stroke-width="1px" opacity="0.25"></line><line x1="1128.4166666666665" y1="0" x2="1128.4166666666665" y2="378" fill="rgb(0, 0, 0)" stroke="rgb(60, 60, 60)" stroke-width="1px" opacity="0.25"></line><line x1="1231" y1="0" x2="1231" y2="378" fill="rgb(0, 0, 0)" stroke="rgb(60, 60, 60)" stroke-width="1px" opacity="0.25"></line></g><g><line x1="0" y1="378" x2="1231" y2="378" fill="rgb(0, 0, 0)" stroke="rgb(60, 60, 60)" stroke-width="1px" opacity="0.25"></line><line x1="0" y1="330.75" x2="1231" y2="330.75" fill="rgb(0, 0, 0)" stroke="rgb(60, 60, 60)" stroke-width="1px" opacity="0.25"></line><line x1="0" y1="283.5" x2="1231" y2="283.5" fill="rgb(0, 0, 0)" stroke="rgb(60, 60, 60)" stroke-width="1px" opacity="0.25"></line><line x1="0" y1="236.25" x2="1231" y2="236.25" fill="rgb(0, 0, 0)" stroke="rgb(60, 60, 60)" stroke-width="1px" opacity="0.25"></line><line x1="0" y1="189" x2="1231" y2="189" fill="rgb(0, 0, 0)" stroke="rgb(60, 60, 60)" stroke-width="1px" opacity="0.25"></line><line x1="0" y1="141.75" x2="1231" y2="141.75" fill="rgb(0, 0, 0)" stroke="rgb(60, 60, 60)" stroke-width="1px" opacity="0.25"></line><line x1="0" y1="94.5" x2="1231" y2="94.5" fill="rgb(0, 0, 0)" stroke="rgb(60, 60, 60)" stroke-width="1px" opacity="0.25"></line><line x1="0" y1="47.25" x2="1231" y2="47.25" fill="rgb(0, 0, 0)" stroke="rgb(60, 60, 60)" stroke-width="1px" opacity="0.25"></line><line x1="0" y1="0" x2="1231" y2="0" fill="rgb(0, 0, 0)" stroke="rgb(60, 60, 60)" stroke-width="1px" opacity="0.25"></line></g></g></g><g><g><line x1="0" y1="189" x2="1231" y2="189" fill="rgb(0, 0, 0)" stroke="rgb(153, 153, 153)" stroke-width="1.5px"></line></g></g><g><g><line x1="102.58333333333333" y1="0" x2="102.58333333333333" y2="378" fill="rgb(0, 0, 0)" stroke="rgb(153, 153, 153)" stroke-width="1.5px"></line></g></g><g><g><g><g><g><path stroke="rgb(255, 112, 67)" stroke-width="2px" d="M103.01418333333334,-439.10385847091675L103.54761666666667,32.347565267397044L104.29647499999999,69.45267105748985L104.93249166666666,209.1797810483255L104.98378333333334,286.68546706617826L105.38385833333332,324.4704118858891L105.76341666666667,351.32974712121904L105.84548333333333,370.3954521548528L107.44578333333334,367.1335497087859L108.0818,358.43430970127247L108.52290833333333,367.0624756772325L108.59471666666667,349.0937475958438L109.08711666666666,350.4331510607551L109.220475,345.0307749490021L109.90778333333334,341.4819893728835L110.87206666666667,335.66897762035734L112.98528333333333,337.2686609139122L113.51871666666666,336.51426045738697L116.25769166666666,329.4292806499505L116.298725,328.9534344131344L116.79112500000001,324.49497413752306L116.86293333333333,317.17568502182377L117.31429999999999,320.9612714853829L119.93017499999999,324.8655757160363L120.37128333333334,319.59725131297785L120.40205833333333,325.7679494278284L121.838225,314.8029082641476L122.24855833333334,307.4656565714911L123.4693,312.60503107391065L124.0848,316.03701031749915L125.14140833333333,309.4073727151177L125.78768333333333,312.26049659969283L126.24930833333333,315.78352043389054L127.09049166666667,318.1566138821306L127.57263333333333,323.4285470371364L128.0752916666667,319.0501210337633L128.08555,320.74089552922703L128.20865,326.61726479722904L128.55743333333334,327.11023279319693L130.12695833333333,328.2206121004137L130.69116666666667,327.3270220514318L133.74815,333.9346907998543L135.71775,332.21944840062713L135.88188333333332,330.9673863658251L136.487125,332.508119125432L139.69798333333333,325.61904615551725L139.7185,323.8717415273114L140.23141666666666,324.2493608762817L140.95975833333333,321.8696074093156L141.70861666666667,323.7248683993901L141.780425,326.6383416652724L142.87806666666665,326.20091120971887L143.1653,326.87588037369574L143.98596666666666,327.76322979595153L145.6273,320.3448314394484L146.86855833333334,320.76358119103156L147.72,324.37010571235766L148.66376666666665,326.64647788779445L148.83815833333335,329.8905336298393L150.5513,335.2495618898392L151.70023333333333,338.4296667413229L153.57750833333333,338.64997573944845L154.96238333333335,337.6760440238644L155.24961666666664,341.56497672360655L157.41412499999998,340.7974335740382L157.55774166666666,340.0506591108424L159.506825,339.95088855121253L160.84040833333333,342.1143057355423L161.291775,343.4489178712028L162.16373333333334,339.16538869332686L162.7382,343.17544594421L162.81000833333334,346.1748144661668L163.17930833333332,351.5887013581065L164.03075,350.17693706972676L166.185,340.3197276719598L166.37990833333333,338.96405098282145L167.09799166666667,341.39663767452174L170.02161666666666,339.64712595659L170.31910833333333,338.7633357614988L171.30390833333334,337.8283378109126L171.42700833333336,334.143717925412L172.89395,332.1992053959779L174.04288333333332,326.44004988106826L175.98170833333333,326.5798783848645L178.31035,328.63914852231596L179.1105,324.4986622074937L179.14127499999998,322.34773796970126L179.633675,316.11682329878136L182.47523333333334,318.723411524675L182.57781666666668,319.5990644810729L182.93685833333333,320.501313950942L184.55767500000002,319.86208243329327L185.32704999999999,322.06921803971886L186.4965,319.2245759194185L186.9170916666667,308.9259138687474L188.373775,311.8831468806472L188.51739166666667,307.7039790187059L189.75865000000002,305.97466316444525L189.86123333333333,308.1270768853271L190.81525833333333,306.1646134311599L193.65681666666666,305.08210289519076L194.16973333333334,306.76208580661483L194.24154166666665,313.04694879572276L194.836525,317.18100092366103L197.5755,320.13312288951084L199.70923333333334,322.28424462897874L200.59145,324.37556356156017L200.72480833333333,313.7821312238291L202.06865,316.0763438437051L203.55610833333333,317.1646592848005L204.21264166666666,313.5669752728095L207.99796666666666,312.9318403559308L208.06977500000002,312.2269140548199L209.25974166666668,312.1296571114378L210.08040833333334,317.593680071503L210.52151666666668,315.78344911325235L211.393475,316.88167264563015L212.932225,310.67553824342394L213.16816666666665,313.27551028199736L214.41968333333332,319.18429014829906L214.45045833333333,318.1410911452346L215.07621666666665,317.3911269005298L215.15828333333334,321.06498652990143L215.63016666666667,321.95162079967173L216.47135,325.77934446918516L219.72324166666667,328.0778159564082L220.26693333333333,321.3170426236102L220.88243333333332,320.15414902896305L221.23121666666665,325.9301123275878L222.45195833333332,318.53277269745274L223.211075,317.92015315300785L225.36532499999998,309.89921639868584L225.41661666666667,308.4916392251029L227.3657,310.7535208789981L228.65825,308.241948634388L232.566675,310.02836426074L234.67989166666666,312.30045911849896L235.31590833333334,308.3402356847149L236.29045000000002,306.0985101374331L236.56742500000001,307.0826463935413L237.059825,307.57347882258216L240.06551666666667,310.0125388758993L241.54271666666668,311.40674037478414L242.06589166666666,311.23560897914285L242.30183333333332,305.2069141448051L244.25091666666665,305.71440954132527L245.01003333333335,301.4604450191486L247.02066666666667,304.93111977694775L248.46709166666668,306.2050625446758L249.21595,306.83289538476663L249.66731666666666,302.53536088597724L250.785475,303.429636872793L252.74481666666668,304.8781220536383L253.05256666666668,304.54383425683073L253.24747499999998,302.23961502050213L254.19124166666666,302.4158494728878L254.49899166666665,301.43677155454446L255.15552499999998,302.7533816596649L255.35043333333334,299.27159429189953L259.78203333333335,295.7236840670626L261.310525,298.2873119278971L261.33104166666664,301.32293323143756L261.65930833333334,301.3753850912468L264.0495,300.88136396097013L264.2957,298.2352351587833L267.90663333333333,302.7954068764766L269.27099166666665,302.87767993400706L270.00959166666667,299.94777054072L273.86672500000003,304.9865149612399L275.0156583333333,313.082000633991L275.50805833333334,306.1031040488241L275.9389083333333,310.08300360840195L277.65205,309.0939603185075L277.9700583333333,317.46899521981106L279.9704333333333,315.2118835523618L280.22689166666663,310.8410691175298L280.452575,307.9111154742021L282.545275,306.8156221647023L282.6888916666667,311.1997134296252L282.9863833333333,316.1862181828226L283.06845,311.9540491082904L287.900125,310.55822082551964L291.8598416666667,306.32623145589844L297.0608166666667,305.1442883806194L298.68163333333337,308.86182698656955L299.225325,307.63785117550924L300.271675,306.7834006096584L302.93884166666663,305.31623297516273L304.057,308.91798012572985L304.2006166666667,308.723829667892L304.9905083333333,308.95591339461623L306.17021666666665,312.12882996487815L307.11398333333335,309.5397108843948L307.69870833333334,314.3998320302699L308.1090416666667,312.30839285460894L308.2936916666667,299.9371891017902L308.38601666666665,285.90136158478117L309.16564999999997,287.4288920721633L310.25303333333335,282.28092035330525L310.3351,278.6751012216049L311.0634416666666,266.3182708776201L312.26366666666667,260.2960476469334L313.2792416666667,239.5982892266422L313.28950000000003,228.36307212820938L313.5151833333333,230.27888471335064L313.6793166666667,200.87059850506992L315.74124166666667,182.32604657579236L315.7720166666667,193.9818250396694L316.274675,194.45380260570033L316.520875,218.89750244029858L318.829,226.40057904034046L319.48553333333336,203.007320590429L320.152325,183.62240583000735L320.38826666666665,222.65159925947117L321.2807416666667,210.94118288475065L322.01934166666666,201.69288390814813L323.3734416666667,189.07530941457392L326.7074,169.6914071918071L328.32821666666666,203.93970748162965L330.7799583333333,223.7820681200359L331.26210000000003,186.2944450063666L331.6519166666667,164.43239740281282L331.93915,134.93600498941586L333.1086,130.81647629144695L336.88366666666667,132.89378118485007L339.94065,167.78231590053102L340.0432333333333,155.10738784287318L340.4946,187.24099384449676L340.76131666666663,182.76672419098367L341.22294166666666,168.5994705156145L341.4588833333333,202.42256731475425L342.2282583333334,192.41686139426014L342.9053083333334,167.88364191443225L344.0645,174.19243957161484L345.3980833333334,172.60117907533945L345.510925,191.54216301078543L345.71609166666667,166.2812709718032L348.14731666666665,159.9254097956316L349.59374166666663,144.3988493996611L350.29130833333335,181.1338709423958L351.67618333333337,152.9758911149075L351.6967,150.0255284257505L352.0865166666666,146.476909105106L352.3224583333334,180.64747559923757L355.1537583333333,205.24142452915478L356.159075,235.7823939860096L356.24114166666664,230.89001395007648L358.0260916666667,212.96183457664546L358.3646166666667,199.88546204518582L359.12373333333335,209.26763133911842L359.5238083333333,246.41726134392385L360.406025,223.0091293225867L361.637025,211.4702385834544L362.4474333333333,201.87963848279753L363.05267499999997,185.1589716540953L366.07888333333335,195.87076769249163L367.3714333333333,220.3112185616738L367.730475,220.75531804782378L368.4895916666667,180.3625778130886L369.97704999999996,170.24097826566154L370.23350833333336,189.45939534279344L370.89004166666666,159.62359899335482L371.03365833333334,126.07233479411406L372.408275,155.90693496065384L373.43410833333337,139.8555568472941L374.1214166666667,108.19203643797715L377.47589166666666,110.3381424259623L377.48614999999995,134.71405819921864L377.80415833333336,146.77521110251433L381.01501666666667,182.3860187719745L381.13811666666663,201.5827590929371L381.17915,172.08347852391464L381.1894083333333,182.10844688796158L382.3691166666666,196.76976012840396L384.73879166666666,197.59116471862038L385.7441083333334,208.61635394964458L385.9185,189.49053122683395L386.10314999999997,178.2993727329505L388.0214583333333,152.37364185988454L388.9549666666667,134.39942848975681L389.30375,136.94179143124563L389.4884,160.0118729859066L393.1095916666667,185.99339658242482L394.3098166666667,186.80505376734163L394.443175,193.0071296793131L395.38694166666664,190.05069851085494L395.68443333333335,177.51251569852178L396.0845083333333,156.1177792932985L399.76725,140.0330492506662L400.0339666666667,117.3185335222426L400.4545583333333,125.5131524040101L400.7110166666667,111.47600134596183L402.136925,133.40367671589763L402.77294166666667,121.19578308182764L404.906675,118.95376165256704L405.07080833333333,104.59652141421196L405.829925,133.42769947172246L406.3428416666667,143.00038103408275L407.737975,166.17179805676614L408.57915833333334,170.71631618812188L410.38462499999997,192.8861898138486L410.65134166666667,181.47097188818367L411.2771,174.17371702415446L412.1182833333333,198.13114874536825L412.8261083333333,229.6058692048094L413.2467,204.32016354656037L413.68780833333335,203.82351384179017L415.0419083333333,181.52488098713482L415.15475,152.73049461465763L416.6114333333333,139.01893135650445L417.57571666666666,135.36609129949144L417.71933333333334,145.11130831678534L424.75655,143.18139799027807L425.1361083333333,146.4325954603669L427.7314666666666,158.05024541639588L428.8804,138.4579751176155L429.54719166666666,108.26400633696522L429.61899999999997,147.82208941878503L430.19346666666667,151.28677692585825L430.2857916666666,159.00017780011353L430.8910333333333,164.37531291039323L431.0243916666667,190.0294625975063L432.63495,189.968783837587L432.973475,218.11976537532078L435.31237500000003,204.9228585113772L436.41001666666665,218.15056711762782L437.589725,247.43924351359775L438.0923833333333,218.64088259188023L438.66685,232.8769770630264L440.02094999999997,256.28935458466117L440.10301666666663,248.31209233608186L441.45711666666665,232.87276157545318L442.6676,244.60318399411028L442.944575,227.6532663832265L442.9650916666667,209.1507718022196L443.88834166666663,231.4579527004996L444.606425,216.51319578196163L444.9552083333333,222.77764838315022L445.2424416666667,215.81572969437943L448.5764,211.44632138217895L448.668725,183.14527283576922L448.79182499999996,171.62512521954133L448.98673333333335,189.09833817267247L449.161125,166.68941669921227L449.715075,177.89902119960536L449.838175,214.5898539540991L450.0946333333333,188.1570914144637L450.4741916666667,212.7408419533557L451.54105833333335,200.55442626242598L451.7359666666667,212.87234760462883L452.8130916666667,228.86574546229622L455.0801833333333,220.7757741657103L455.29560833333335,202.6228442436331L455.8598166666667,193.87973266695366L456.7522916666667,204.41950419711134L457.5114083333333,226.51806877617528L459.39894166666664,221.32912975543545L465.04102500000005,216.02804608470427L465.25645000000003,193.59586197841548L465.3385166666667,176.13668112368435L465.49239166666666,209.40288490881102L466.579775,190.56782836402536L467.503025,162.58531804768472L469.534175,156.99656824902377L469.60598333333337,139.4392781113418L470.334325,131.23438484463838L471.4011916666667,103.38497471020077L471.5755833333333,130.39917052597403L472.26289166666663,100.81157875557784L474.4068833333334,104.30257648414113L474.70437499999997,110.02266382149804L478.335825,107.21999172926616L478.643575,99.20783424972888L478.83848333333333,121.56030023327304L479.75147499999997,125.81926502203783L480.2849083333333,136.65427992203848L480.6029166666667,115.83567658354463L481.1876416666667,105.65340749588722L483.87532500000003,116.07372392295235L484.21385,105.45439665502852L486.80920833333334,114.1433961307348L487.15799166666665,117.41869432852332L489.97903333333335,89.31072760116712L491.1279666666667,76.18366838192782L494.3696,96.79284352950259L494.93380833333333,121.98387178034898L496.90340833333335,119.99639793501234L497.06754166666667,132.47760149194357L497.18038333333334,169.47905992665125L498.98584999999997,187.29581730865306L499.5808333333333,208.89502965641682L499.78600000000006,217.23085292249624L501.01699999999994,202.2650759056362L502.46342500000003,205.7354552073472L502.70962499999996,213.62622839431782L504.1047583333333,236.29898385277954L505.08955833333334,265.2182818046093L505.6948,238.4682371185739L505.80764166666665,248.92042783396062L509.85968333333335,203.9841505288304L510.14691666666664,205.9926597753649L510.6700916666667,171.61433088766583L511.66515000000004,176.9016270650643L511.98315833333334,194.5168542044557L512.03445,160.17343539057234L513.1218333333334,158.3637372528915L515.9531333333333,169.5634343669332L518.0458333333333,165.94235100011124L519.5538083333333,133.3393504749357L519.7179416666667,147.598535875974L519.7589750000001,174.06956540210166L520.0975,169.30623625673755L520.3026666666667,191.03214011753875L521.051525,159.57311840980603L523.5853333333333,142.06695211688873L524.4880666666667,143.3823040490799L525.6780333333334,124.67882179186435L525.9550083333334,115.82845127149301L526.6730916666667,105.1905540301936L527.3706583333334,135.6912408401879L528.2118416666666,127.71047449920977L528.7042416666667,97.17401722231159L528.868375,90.2175827314037L532.1100083333333,80.7055866685983L533.5666916666667,59.079839208450494L534.80795,53.32098617968228L535.9363666666667,78.0008033946545L536.9109083333333,70.67017141892296L538.0495833333333,90.90747295856278L538.2342333333333,77.36205045812329L540.3884833333333,114.10983963064149L543.3223666666667,139.8772347997708L543.4967583333333,133.07001114330345L543.8968333333333,102.472993004118L546.5434833333334,94.47140930523886L549.0054833333334,56.04929294754038L549.364525,62.78810905450888L549.918475,55.24458537304349L550.2467416666667,79.94935959547132L550.9853416666666,69.33664922232845L551.2623166666666,65.34121774091278L551.30335,69.38854337834414L551.9496250000001,40.965986465176L553.7448333333333,29.015926360126457L553.8781916666667,0.7807074289927982L554.6988583333333,30.783783507438613L554.7398916666666,58.921209227552424L555.1091916666667,93.28079771678483L556.0016666666667,95.35083670821331L556.073475,126.45473729076932L556.5248416666667,108.13569929644183L557.0685333333333,93.2048517682399L559.9511249999999,122.19206241721L560.5666249999999,148.89031933296963L562.1771833333333,140.04575813571498L562.3208,136.48250042450633L563.8390333333333,154.27768137674207L565.2752,163.8061929344582L567.3884166666667,155.97368071455605L567.4807416666667,165.46666335499577L568.0244333333333,137.92934168675148L569.4093083333333,114.27669999991139L569.7786083333333,140.2563692059784L570.9583166666666,112.66123299499884L572.815075,113.74240421915948L574.8051916666666,115.46522473287274L575.3899166666666,128.521747030221L576.200325,132.50798978453798L576.569625,163.79611142479195L577.7288166666666,125.94005595940956L577.8929499999999,90.93673175114685L578.7033583333333,111.99369269396556L579.585575,121.83128365294408L586.75615,126.03212169919624L587.1972583333333,121.1481993169233L587.8127583333334,148.15826316704766L588.017925,167.33242592474173L589.2078916666667,162.05666668811088L589.741325,154.74210978104605L590.356825,182.46996462333473L590.726125,154.8259928716527L591.2698166666667,132.54277926482374L591.4442083333333,158.68204692200203L591.587825,148.6855429473131L591.834025,142.8767698815616L591.957125,183.9416993276272L592.3572,209.95510929088854L592.5008166666667,174.0697734885942L593.77285,163.61899242191024L594.4396416666667,165.53154287869694L594.6755833333333,181.18726970710142L595.7629666666667,188.60372818995174L596.8400916666667,156.4321662826084L597.3119750000001,178.18802211322748L600.3381833333334,197.52593348986858L603.6413666666667,180.36136053189043L605.0570166666666,157.2982441333519L608.0319333333333,136.74254196865863L608.5858833333333,128.0023918839358L608.8423416666667,131.08297034636163L610.1348916666666,130.8786160658463L610.9658166666667,108.15210100070027L611.591575,99.94680535860482L611.7864833333333,89.60897422567035L615.56155,76.61432723678195L616.0744666666666,99.5958368453642L617.0284916666667,103.14582905968808L617.192625,120.25994239773684L617.500375,135.00433401960672L618.2492333333333,143.80313877724646L619.4186833333333,112.21066388924476L621.9524916666667,81.87845436538919L621.9730083333334,82.5872346386401L623.901575,74.55947058949693L625.5429083333333,113.73903518716656L627.1329499999999,111.56673411756503L628.086975,112.58700130218392L628.6511833333334,104.96988738176634L629.2666833333333,95.60850561599716L633.4520833333332,96.65104609502168L633.9444833333333,101.90063659234102L634.02655,108.73356854505533L635.5447833333333,108.68499613880385L636.026925,117.58568897006785L636.703975,105.98516345210021L638.4478916666667,146.92292325002364L639.0121,167.5647775170987L639.6378583333334,147.0976760912752L639.9866416666666,140.1683928869621L641.2484166666667,164.01120382645615L641.4330666666667,158.67553756590848L643.01285,165.2877333926275L644.24385,167.42390180287268L645.3107166666666,148.18921240938502L645.6492416666667,141.3498806592648L646.3057749999999,106.89285514520816L646.4083583333332,129.07242727072077L647.2187666666667,154.96067729661112L647.3726416666666,141.51408719424944L650.3885916666667,116.68681379720601L650.4706583333334,119.93831406929701L651.0759,125.4116891163091L651.2195166666667,105.37574626693629L653.5173833333333,98.19387123193957L653.5891916666667,81.19838154924486L653.630225,59.29492003006658L653.6712583333333,60.880970208164854L655.1176833333334,57.58823124384014L655.4562083333334,61.68920927313667L655.56905,43.280623110960846L657.2719333333334,51.234976412890774L657.4258083333333,48.52679701302429L657.6412333333334,57.189423736060746L657.7951083333334,77.02858695935072L659.0055916666668,68.21209234974185L661.3137166666667,70.82898875656389L662.9447916666667,96.0724372423395L663.170475,99.97629773744427L663.6218416666667,109.09924330132947L663.909075,126.03537080278139L664.8118083333333,120.84910633764673L666.1453916666666,122.70352724684352L666.6070166666666,97.15264903250875L668.771525,90.68173598246761L669.8589083333333,112.28693529726257L669.8896833333333,95.23303523831999L670.1564,111.0156362865531L670.4744083333334,100.31413758615662L672.31065,102.53750202377881L672.3619416666667,125.44738917301564L672.4440083333333,118.92460067831911L674.1058583333333,119.33370549368385L674.6495500000001,156.9958738621391L676.7012166666666,183.13447461992968L677.9835083333334,177.85120428803046L680.1685333333334,157.0081225349179L680.5070583333334,162.66256495208953L680.9379083333333,171.88011207162143L681.4816,191.0797983901127L682.2509749999999,205.4456350714631L682.3945916666667,245.93796100552294L682.4664,218.5220048715334L683.2870666666668,213.83423477726814L685.1233083333334,194.68827248748184L685.4618333333333,177.92998545697125L687.2980749999999,178.54574335798918L690.375575,195.5911115040848L690.437125,194.67763127031898L692.2733666666667,159.22980505618708L695.1046666666666,139.22112095982348L700.5928749999999,116.03426991235858L701.11605,125.20030304854203L702.0803333333333,123.18982025981612L703.2703,87.37798018825674L703.8345083333334,92.06910939450745L704.1422583333333,106.74761279314816L704.9424083333334,92.9282479687684L705.2193833333333,106.54426208208707L705.393775,118.00438769203328L705.6502333333334,116.33190842053347L707.9686166666668,126.94584593830047L708.1327500000001,98.14106463123193L708.1943,120.56798911014465L710.5332000000001,139.22150801011676L711.0153416666666,157.121080795629L712.2566,143.8268501382305L714.2262000000001,130.37445601914226L714.3903333333334,134.10183429563557L714.6980833333333,124.2214194078355L715.3853916666667,156.46205915427694L715.5290083333333,130.7161192533987L718.9655499999999,169.96983917028297L719.919575,155.29571129467675L719.981125,127.10867106952969L720.2068083333334,121.4478477448232L721.1300583333334,132.4447695224411L722.9560416666667,141.65649512723283L723.2432749999999,140.50895528286458L724.1973,158.92649709810868L724.966675,143.1683714284024L729.5931833333333,122.94670000664019L730.444625,137.83636017326702L731.1729666666666,110.23979926881856L732.1680250000001,123.15373823885903L732.2911250000001,116.38828055937427L732.8348166666667,96.6964691823676L733.8196166666667,134.90741698193844L735.3173333333334,137.0258744501115L740.0259083333334,164.28387380326927L740.846575,176.33557800140528L743.8933,179.11460160885122L744.2113083333332,173.31727624114393L744.293375,186.23397843953043L747.5657833333332,176.25128217289625L749.1045333333334,181.37253293775314L751.1151666666666,169.35915063103798L752.5308166666666,180.7700112858382L753.2489,170.74682625292118L753.2591583333334,163.67514961715145L754.1208583333333,140.52408982455952L755.7416750000001,132.4145707493493L756.8700916666666,110.96940576770874L757.7317916666666,117.31105250382149L758.9935666666668,111.00029368454011L760.1219833333334,103.88939619033073L760.8913583333334,110.33900088372008L761.4247916666667,146.356619322475L764.358675,161.57841124460322L764.4612583333334,167.27618355197814L764.4817750000001,167.39056663715218L766.1641416666666,167.39623570663875L768.2363250000001,142.69347172562254L769.2621583333333,132.9143016087638L769.375,146.63131293296692L769.92895,166.11511997640497L771.8882916666668,158.4708261040316L772.1857833333333,133.09566518789913L772.3704333333333,136.0801795697291L773.2218750000001,128.1420858506467L773.99125,115.57200496401657L774.3092583333332,124.4997613124633L774.7811416666667,117.13392813196663L775.5402583333332,141.97498057013655L775.9711083333334,154.32234084169608L776.6481583333333,149.43859330581054L778.6793083333333,154.79809756028956L779.0999,168.48802235479968L780.1359916666667,181.60739687633935L782.6903166666667,167.11317732333004L785.1112833333334,159.6736104920282L786.270475,149.22362799926688L787.7066416666667,172.52164879432493L789.3582333333334,161.53795626787118L789.6454666666666,177.85507958306752L790.1070916666666,172.7664207631157L794.4053333333333,165.0867213999497L794.7541166666666,175.67511401164424L795.1541916666666,193.80529971035233L802.8479416666667,184.80287537221415L802.8582,201.95572703814196L803.0325916666667,220.14070416181943L804.02765,210.5795355734305L804.550825,215.9910905490791L805.4022666666666,197.16787997690867L806.2024166666667,163.92157045981372L809.6799916666666,158.93243231525392L810.2852333333334,129.42811951005606L812.1625083333333,145.00563216712658L812.1727666666666,125.50754684964954L812.306125,120.06614244854899L813.75255,115.15202362991226L814.2654666666666,98.8162320774415L815.075875,76.711030138865L815.2913,92.32813202352139L817.1993500000001,112.4912448557821L817.476325,121.9410643380076L817.784075,126.07047953736375L818.5944833333334,122.00373530371431L819.7947083333333,114.18588178523947L825.3649833333333,116.77645984690491L825.4060166666667,142.72370758392242L825.724025,134.93783349616982L826.0933249999999,112.66367819666516L826.6165,150.57274644831807L827.3961333333334,127.16286399227693L830.0530416666666,122.438650673116L830.8839666666668,141.21377095563386L833.7152666666667,176.62929351349987L834.1461166666667,191.86820411166883L835.3155666666667,172.53556430860962L836.6081166666667,161.11929401764206L836.8748333333333,180.0365907768838L838.0648,166.68099293532404L839.6445833333333,187.34709461591348L840.21905,178.08188840009282L840.742225,177.33029479865232L840.9679083333333,156.78299772241007L841.3064333333333,165.32206834090158L841.5628916666667,174.7141637827019L843.204225,151.57086630242628L844.0043750000001,148.56151622158575L844.2198,144.44491207869822L844.2300583333333,175.8241519309429L844.250575,170.78185077707846L845.296925,161.90262028633774L845.3276999999999,167.68732039089195L845.7380333333334,140.93099373330912L846.9074833333333,125.62675142223861L848.6001083333333,142.40874083840478L850.1388583333334,159.1730490662593L850.9082333333333,180.04376410489857L851.5339916666667,161.8269165580122L853.2779083333334,192.06412750194193L854.7038166666667,189.86456650363863L859.1148999999999,159.38224405714348L859.5354916666666,175.9837937772176L859.5867833333334,182.41816543449445L860.068925,180.0009582522873L860.684425,187.79009228031782L860.9203666666667,212.26433135636097L861.8128416666667,214.97773569354274L863.6183083333333,186.8273809549103L863.6901166666667,181.5271710823279L870.5734583333333,154.8627257705451L870.9427583333332,156.23665147366046L873.3945,190.87793534551727L873.7125083333334,157.37103773157745L876.7694916666667,159.1180525298256L876.9541416666666,199.00325168337577L877.7748083333333,216.89742384416715L878.4108249999999,202.85819304365498L879.1083916666666,186.01167650716346L881.4780666666666,203.89795275614114L881.4985833333333,196.09923057937266L882.7911333333333,191.7580108669515L883.2322416666666,201.02135608494993L884.4529833333333,204.08375375163024L886.6380083333333,222.3329024162734L887.1611833333334,222.0208056312858L888.6383833333333,237.86330039902518L889.120525,214.21529823667726L889.4487916666666,232.7020810742208L890.32075,221.51315907425632L891.5107166666666,192.51440501762866L891.582525,211.87861817967698L891.6953666666667,228.08496390314062L893.2238583333333,233.92585856102946L894.50615,241.94363849112386L895.7987,247.6778319600628L897.1938333333334,265.1024378869349L897.9119166666667,270.5356423050108L899.0711083333333,275.6026238049096L900.7021833333333,297.03280162568535L901.7177583333333,305.1267101246144L903.6873583333333,301.915030677867L904.1182083333333,287.38311452214805L904.8670666666667,271.0256802275562L905.4517916666666,280.68797902604126L910.6835416666667,258.7592978664741L911.3811083333334,245.09081609563898L912.1709999999999,250.2701509492171L912.3146166666667,278.5791018259133L912.7146916666667,260.70844929807345L913.0429583333333,251.75181115244072L914.1816333333334,258.5043643241643L916.1614916666667,276.8804784297331L916.8693166666667,256.88111487154026L917.27965,259.52844356830354L919.1158916666667,225.63239240412543L919.3518333333334,229.1983443548345L920.1314666666666,234.51840845356972L921.3214333333333,202.8447703834084L921.5778916666667,183.89123897646257L922.9217333333333,211.6662191748775L922.9935416666666,209.01945837326312L923.2294833333333,195.82600415043353L923.5680083333334,222.83473611387052L923.6090416666667,241.40457045218935L924.2758333333334,260.43581503348787L924.942625,244.33700083661546L926.8506749999999,241.07227535009497L927.2507499999999,216.01771747834312L927.4148833333333,192.9105786878932L928.8920833333334,177.22487551314953L929.1588,179.65647484817083L929.5383583333333,214.20627007294524L931.7233833333333,237.8085238460007L932.1234583333334,237.30838006028713L932.1439750000001,234.19428384548567L932.9543833333333,222.8871648317715L933.4673,201.4547820764505L933.6622083333333,175.63101931600156L934.7085583333334,148.93122253226812L937.4167583333333,149.28798489071784L938.5759499999999,165.3472530848742L938.9349916666666,176.77394047086307L943.2742666666667,164.6192511160467L944.5873333333333,185.3054777077657L946.3312500000001,222.56399519785023L948.1880083333334,231.77541979430913L948.762475,204.81698594701135L949.16255,184.00766686977386L950.4140666666667,188.44586458889148L950.8346583333333,165.28782525155495L951.3168000000001,140.86622519369914L951.6655833333333,168.34701044721228L952.2913416666667,177.57950774834703L952.4759916666667,154.36995876349744L953.2453666666667,183.68486941483147L954.7943750000001,202.449771439631L955.3278083333333,194.238624378024L956.7639750000001,206.2564884690721L959.25675,183.93916188721224L961.84185,193.38420251772152L963.4934416666666,191.414357344084L963.9858416666666,163.10154256926825L965.9759583333333,195.13440810130814L966.304225,182.87166267281455L966.3862916666666,171.79630322295205L966.8992083333334,194.5747681897402L968.3251166666666,207.04161615875333L968.4789916666667,231.88739191944296L969.1560416666666,230.66790393956464L970.4485916666667,226.14007699718218L971.32055,221.73183632938554L971.8745,233.13686336915885L972.67465,249.5531488636731L974.1313333333334,252.29871007396645L974.7468333333333,277.77415369027335L974.9109666666667,284.1411609309165L975.0751,256.27348040316065L975.4546583333334,266.61932663831067L976.275325,273.5996778309392L977.0344416666667,248.05910851443252L977.8243333333334,244.39510217702934L979.7529000000001,257.16925333020674L980.0709083333333,238.08722188790946L980.4094333333334,228.6296427761647L981.0659666666667,206.50723805619322L981.4660416666666,231.71805881755265L981.5788833333334,210.61114776627755L982.2251583333333,218.78195173532538L984.646125,194.39593821799158L984.9436166666667,196.47810013338918L985.630925,199.26200189539128L989.4367666666666,191.2189927156433L991.0268083333333,184.94399407520686L991.38585,192.99350236584533L991.4576583333333,196.9369644452747L992.8015,198.27148088214818L992.9348583333334,203.66165155008395L993.4067416666667,200.54584909328005L993.6734583333333,178.83841661094135L994.2274083333334,148.19459248807004L995.1404,143.6310063432714L999.0898583333334,157.21893852434042L999.6745833333334,179.5825447446976L1000.7619666666666,188.7646476308511L1001.4287583333333,194.2362568843927L1001.8903833333333,192.82983297263618L1003.4393916666667,206.89861381793511L1003.5624916666667,185.88273032448558L1005.6141583333333,186.32209090804378L1006.2706916666666,180.3826137320904L1006.5887,182.42460449754316L1006.7220583333334,186.88402097062485L1009.1532833333333,208.593868084917L1009.8405916666667,192.33363302438858L1012.2307833333334,201.88373416075032L1013.17455,190.549962214481L1013.6772083333333,192.7366889370931L1014.77485,221.06105086026767L1017.2060749999999,207.7362790638064L1018.2626833333334,220.87834554035982L1019.1346416666667,202.06050527925686L1019.298775,187.00682419358284L1023.2174583333333,209.31883530281905L1023.3918500000001,220.87633279259447L1024.530525,222.62264170598343L1024.7254333333333,249.82562504894992L1025.5563583333333,229.8127641813826L1026.130825,231.85710537759107L1026.1923749999999,208.65969032161794L1028.2645583333333,237.05977796349578L1028.9723833333333,241.85524453156157L1029.1057416666667,243.1778664166085L1030.4495833333333,231.31189238374395L1035.271,225.1749415403754L1036.8507833333333,216.91905122337067L1037.05595,236.20951177055025L1039.1691666666666,251.32584313091562L1040.1744833333332,259.1287493637444L1040.656625,258.39749892218083L1040.9541166666668,255.32026040734922L1042.4928666666667,256.67073846270335L1042.6980333333333,249.04377445373768L1042.7288083333333,223.0064417422996L1043.3648249999999,211.64058068775188L1043.6007666666667,226.92998872646692L1043.6315416666666,211.07460601371997L1045.6934666666666,192.43460755759463L1046.442325,216.21952813922795L1047.3142833333334,197.5553656070967L1047.581,198.98675517417695L1048.87355,196.50386825030665L1049.5198249999999,195.46057571663937L1052.9768833333335,222.09824033541733L1053.828325,195.53128388052934L1054.4335666666666,173.39900823642816L1054.4540833333333,177.69867969651742L1054.7720916666667,169.2245019144311L1055.5004333333334,180.39567171307132L1057.9008833333335,193.60649806411314L1058.8959416666667,215.666459330767L1061.4400083333333,227.58855300244474L1063.5121916666667,247.61816145561338L1065.8510916666667,228.89891880069783L1067.4924250000001,212.82155130586247L1070.7648333333334,212.87480458104707L1071.1341333333332,197.56914773069997L1071.2162,201.00413009284262L1072.3651333333332,219.9699702506339L1072.75495,236.08102082709573L1074.9092,248.95415124430355L1076.0068416666668,234.26752302329717L1077.43275,236.8216259193209L1077.709725,216.03377989389358L1079.0125333333333,226.88429512745859L1080.417925,245.06406657746814L1080.9923916666667,228.97851448426138L1081.3206583333333,208.6958205296394L1082.049,203.42371773535197L1082.4285583333333,202.62772834236617L1085.9471666666666,187.80747045456968L1086.8601583333332,174.34088424147953L1087.0961,207.47600797467695L1087.7116,194.76278853532517L1087.7936666666667,203.75735818947254L1088.6553666666666,185.2433730799334L1090.4710916666666,186.23652404954703L1091.2917583333333,213.91768665288632L1092.1534583333334,241.36426147666435L1092.5637916666667,249.70829762567354L1092.8715416666666,247.5226617105397L1093.5383333333334,246.8024304465409L1093.8665999999998,237.78427990648657L1097.8263166666668,249.20766066579134L1099.2419666666667,240.07342743320743L1099.96005,262.4399466482135L1100.6781333333333,284.25875820238923L1101.0679499999999,293.54254772496427L1101.9091333333333,279.3506658179007L1102.3605,289.47852541346106L1102.976,259.2397178177806L1103.7556333333332,280.6659581829675L1104.3403583333334,291.9375672273275L1105.25335,273.76904370779107L1105.776525,290.2504079267929L1105.8073,308.2351760881158L1106.6279666666667,292.10612030878224L1107.7563833333334,274.4430229880298L1107.8589666666667,244.25716290583892L1109.3259083333332,255.98214308288055L1110.0747666666666,240.22268109801857L1112.0443666666667,241.84688057915542L1112.76245,258.81939169736575L1113.2651083333333,269.87762322101776L1113.4497583333334,265.213447473325L1114.1062916666667,240.46100021861992L1115.6347833333334,238.06914776493628L1118.05575,230.04104963523457L1118.7225416666668,240.25942186382127L1120.9280833333332,250.91070417741713L1123.34905,245.1033618019079L1123.564475,232.60815114414328L1124.4364333333333,237.45773032967656L1124.45695,216.73676721246272L1127.2267,225.6083151719553L1128.2217583333334,230.63119519099743L1128.4064083333333,223.71605596802314" style="fill: none;" fill="none"></path></g></g></g></g><g opacity="0.2"><g><g><g><path stroke="rgb(255, 112, 67)" stroke-width="2px" d="M103.54761666666667,471.74029219150543L104.29647499999999,136.26501506567L104.93249166666666,573.8929080963135L105.84548333333333,472.09366142749786L107.44578333333334,347.8773229122162L108.0818,302.46388989686966L108.52290833333333,426.8421667814255L108.59471666666667,216.31739196181297L109.08711666666666,360.90571814775467L109.220475,300.62784111499786L109.90778333333334,310.98994785547256L110.87206666666667,283.70080357789993L112.98528333333333,352.08821618556976L113.51871666666666,329.2975902557373L116.25769166666666,259.6591967046261L116.298725,324.1426441669464L116.79112500000001,278.3298908472061L116.86293333333333,239.7201505601406L117.31429999999999,361.8258547782898L119.93017499999999,367.7845671772957L120.37128333333334,260.71197071671486L120.40205833333333,395.80031061172485L121.838225,188.60147543787025L122.24855833333334,221.92215214669704L123.4693,373.2393499016762L124.0848,356.9727392792702L125.14140833333333,229.5292140841484L125.78768333333333,346.95830154418945L126.24930833333333,358.9982249736786L127.09049166666667,347.49814492464066L127.57263333333333,389.09303176403046L128.0752916666667,264.1424168050289L128.08555,342.0780592560768L128.20865,401.2096266746521L128.55743333333334,333.40171122550964L130.12695833333333,342.46300506591797L130.69116666666667,315.8118698000908L133.74815,419.4519191980362L135.71775,309.93149614334106L135.88188333333332,314.6374195218086L136.487125,352.6725686788559L139.69798333333333,235.16816157102585L139.7185,300.86183220148087L140.23141666666666,329.23594665527344L140.95975833333333,290.3631902933121L141.70861666666667,348.34619504213333L141.780425,365.38943392038345L142.87806666666665,320.3707475066185L143.1653,335.88934367895126L143.98596666666666,339.6340346932411L145.6273,220.9373105764389L146.86855833333334,326.38358956575394L147.72,372.84287971258163L148.66376666666665,357.28271466493607L148.83815833333335,373.6048067808151L150.5513,407.54756212234497L151.70023333333333,381.378569483757L153.57750833333333,341.6283606290817L154.96238333333335,324.49697095155716L155.24961666666664,394.2353607416153L157.41412499999998,330.39362293481827L157.55774166666666,329.92068403959274L159.506825,338.5965476632118L160.84040833333333,371.5010499358177L161.291775,361.5887094140053L162.16373333333334,280.9112560451031L162.7382,397.73947048187256L163.17930833333332,425.32482397556305L164.03075,330.9407098889351L166.185,205.9549261406064L166.37990833333333,320.4777676463127L167.09799166666667,374.5794110298157L170.02161666666666,315.7744127511978L170.31910833333333,326.7000650167465L171.30390833333334,325.0625216960907L171.42700833333336,283.8232909440994L172.89395,305.6367441415787L174.04288333333332,247.75085735321045L175.98170833333333,328.49080485105515L178.31035,356.7871325612068L179.1105,267.89230674505234L179.14127499999998,292.9364951848984L179.633675,230.9031245559454L182.47523333333334,354.3762955069542L182.57781666666668,331.5778965353966L182.93685833333333,332.8455782532692L184.55767500000002,311.1152853369713L185.32704999999999,352.27350747585297L186.4965,280.2920431494713L186.9170916666667,167.96193446964025L188.373775,352.3642492890358L188.51739166666667,250.49115872383118L189.75865000000002,282.2984567284584L189.86123333333333,337.598117351532L190.81525833333333,279.29254826903343L193.65681666666666,290.25831055641174L194.16973333333334,329.7689745426178L194.24154166666665,399.12113428115845L194.836525,373.80173510313034L197.5755,360.56787246465683L199.70923333333334,351.7491425871849L200.59145,353.0225132703781L200.72480833333333,168.66731970012188L202.06865,347.5049040913582L203.55610833333333,332.0740644335747L204.21264166666666,264.2788562178612L207.99796666666666,304.2302629351616L208.06977500000002,302.56890481710434L209.25974166666668,310.7971313595772L210.08040833333334,392.4585109949112L210.52151666666668,290.980178296566L211.393475,331.9295309185982L212.932225,225.63744923472404L213.16816666666665,348.901652097702L214.41968333333332,400.1507581472397L214.45045833333333,303.84618455171585L215.07621666666665,307.1142529249191L215.15828333333334,371.4091252684593L215.63016666666667,334.1016229391098L216.47135,378.2332137823105L219.72324166666667,359.5756605863571L220.26693333333333,228.667659714818L220.88243333333332,304.2177472114563L221.23121666666665,405.0851526260376L222.45195833333332,217.15720434486866L223.211075,309.52454924583435L225.36532499999998,199.97603058815002L225.41661666666667,289.2013233304024L227.3657,341.75195199251175L228.65825,273.82138019800186L232.566675,334.5109468102455L234.67989166666666,343.4393666982651L235.31590833333334,254.06538355350494L236.29045000000002,275.37553229928017L236.56742500000001,320.57034569978714L237.059825,314.3004187345505L240.06551666666667,343.4403805732727L241.54271666666668,330.51463454961777L242.06589166666666,308.8902014493942L242.30183333333332,222.58159053325653L244.25091666666665,312.66982609033585L245.01003333333335,243.15810495615005L247.02066666666667,352.4982610344887L248.46709166666668,323.66505271196365L249.21595,315.43765980005264L249.66731666666666,243.63538098335266L250.785475,315.68618309497833L252.74481666666668,324.7304438352585L253.05256666666668,299.9622209072113L253.24747499999998,270.6588731110096L254.19124166666666,304.8312542438507L254.49899166666665,288.01787209510803L255.15552499999998,320.7983999848366L255.35043333333334,251.55132839083672L259.78203333333335,247.09711074829102L261.310525,333.423644721508L261.33104166666664,342.9283061027527L261.65930833333334,302.09427613019943L264.0495,294.1104385256767L264.2957,261.968054831028L267.90663333333333,365.2960222363472L269.27099166666665,304.0052953362465L270.00959166666667,259.7910905778408L273.86672500000003,374.0464507341385L275.0156583333333,424.0370224714279L275.50805833333334,210.45177300274372L275.9389083333333,364.6307174563408L277.65205,295.53832376003265L277.9700583333333,432.25565099716187L279.9704333333333,284.2763240933418L280.22689166666663,250.93546691536903L280.452575,267.75368186831474L282.545275,291.8009777069092L282.6888916666667,371.2873363494873L282.9863833333333,384.5304365158081L283.06845,253.94861894845963L287.900125,291.42721831798553L291.8598416666667,248.32324048876762L297.0608166666667,288.9447566270828L298.68163333333337,359.81385362148285L299.225325,290.86221957206726L300.271675,295.0724256634712L302.93884166666663,285.20744436979294L304.057,358.2830150127411L304.2006166666667,306.06283074617386L304.9905083333333,312.1368207335472L306.17021666666665,355.61638855934143L307.11398333333335,274.0535970032215L307.69870833333334,381.0119973421097L308.1090416666667,283.64340698719025L308.2936916666667,130.37911015748978L308.38601666666665,93.52815574407578L309.16564999999997,308.36502546072006L310.25303333333335,211.72348769009113L310.3351,229.25420893728733L311.0634416666666,96.9571373462677L312.26366666666667,177.75622332841158L313.2792416666667,-44.08256435394287L313.28950000000003,74.37460362911224L313.5151833333333,256.53677147626877L313.6793166666667,-202.1956958770752L315.74124166666667,-71.8432731628418L315.7720166666667,353.7344788312912L316.274675,200.9226687848568L316.520875,553.9198408126831L318.829,329.2368253469467L319.48553333333336,-117.61781466007233L320.38826666666665,757.5809690952301L321.2807416666667,50.43963950872421L322.01934166666666,74.93681985139847L323.3734416666667,16.14036065340042L326.7074,-95.98201489448547L331.93915,-269.3380136489868L333.1086,74.35470914840698L336.88366666666667,161.36507365107536L339.94065,645.9604053497314L340.4946,627.6603670120239L340.76131666666663,121.44291722774506L341.22294166666666,-25.575222373008728L341.4588833333333,665.9979100227356L342.2282583333334,55.279844999313354L342.9053083333334,-168.3657510280609L344.0645,260.6600715816021L345.3980833333334,150.7915514409542L345.510925,451.1450436115265L345.71609166666667,-179.9415224790573L348.14731666666665,72.81272917985916L349.59374166666663,-68.40634953975677L351.67618333333337,-232.9540500640869L351.6967,109.58820623159409L352.0865166666666,97.8399521112442L352.3224583333334,648.9852225780487L356.159075,654.3733148574829L356.24114166666664,163.83563075959682L358.0260916666667,-32.75967586040497L358.3646166666667,20.66224318742752L359.12373333333335,337.8585367798805L359.5238083333333,755.5857081413269L360.406025,-97.81996750831604L361.637025,53.31956273317337L362.4474333333333,70.43200421333313L363.05267499999997,-44.01251685619354L366.07888333333335,342.6853816509247L367.3714333333333,555.2891578674316L367.730475,226.8420932739973L368.4895916666667,-373.2555606365204L369.97704999999996,31.515527307987213L370.23350833333336,452.86475586891174L374.1214166666667,-325.7844457626343L377.47589166666666,139.75241839885712L377.48614999999995,468.80748975276947L377.80415833333336,312.08395278453827L381.01501666666667,670.4635562896729L381.17915,-232.23018836975098L381.1894083333333,319.50948321819305L382.3691166666666,397.715993642807L384.73879166666666,208.84923934936523L385.7441083333334,359.7262998819351L385.9185,-72.6457439661026L386.10314999999997,24.914671540260315L388.0214583333333,-202.9613742828369L388.9549666666667,-111.9530246257782L389.30375,171.7871187105775L389.4884,476.20769584178925L393.1095916666667,542.0931015014648L394.3098166666667,197.92953163012862L394.443175,278.01205229759216L395.38694166666664,149.53020080924034L395.68443333333335,5.665657460689545L396.0845083333333,-137.11596035957336L400.0339666666667,-194.0039463043213L400.4545583333333,237.8276345729828L400.7110166666667,-80.91553938388824L402.77294166666667,-46.124170660972595L404.906675,88.2248797416687L405.07080833333333,-92.18212401866913L405.829925,528.5844336748123L406.3428416666667,274.2024282217026L407.737975,483.75651347637177L408.57915833333334,233.0029470026493L410.38462499999997,496.743869304657L410.65134166666667,25.01533806324005L411.2771,74.1584004163742L412.1182833333333,526.4888892173767L413.2467,-142.24274325370789L413.68780833333335,197.01649142056704L415.0419083333333,-124.09755742549896L416.6114333333333,-48.910141468048096L417.57571666666666,85.30069524049759L417.71933333333334,278.67810621857643L424.75655,116.73027411103249L425.1361083333333,190.99312547966838L427.7314666666666,317.28038889169693L428.8804,-130.07137656211853L429.61899999999997,690.0005221366882L430.19346666666667,198.77337627857924L430.2857916666666,264.7191427052021L430.8910333333333,238.046282351017L431.0243916666667,541.6422200202942L432.63495,189.13712789292913L432.973475,603.9538064002991L435.31237500000003,24.047605633735657L436.41001666666665,399.44798505306244L440.02094999999997,577.1766464710236L440.10301666666663,138.9766744673252L441.45711666666665,21.26311057806015L442.6676,405.3789736032486L443.88834166666663,537.197549700737L444.606425,11.68211567401886L444.9552083333333,308.63749873638153L445.2424416666667,120.39649119973183L448.5764,151.55972510576248L448.668725,-204.7455689907074L448.79182499999996,13.731337308883667L448.98673333333335,428.5841392278671L449.161125,-140.4446246623993L449.715075,331.53654170036316L449.838175,717.4700911045074L450.4741916666667,549.6828346252441L451.54105833333335,33.52884650230408L451.7359666666667,381.70032835006714L452.8130916666667,448.0693749189377L455.0801833333333,109.89557933807373L455.29560833333335,-46.17907762527466L455.8598166666667,74.04767400026321L456.7522916666667,348.87637281417847L457.5114083333333,529.3983950614929L459.39894166666664,150.21014200150967L465.04102500000005,143.37201695144176L465.25645000000003,-113.85701429843903L467.503025,-220.93967628479004L469.534175,80.39782100915909L469.60598333333337,-101.19887495040894L470.334325,18.779083013534546L471.4011916666667,-278.3157641887665L472.26289166666663,-304.712473154068L474.4068833333334,152.14978064596653L474.70437499999997,188.42150791548193L478.335825,68.80689775943756L478.643575,-10.60585355758667L478.83848333333333,427.92056930065155L479.75147499999997,184.19213536195457L480.2849083333333,285.15771943330765L480.6029166666667,-169.50165152549744L481.1876416666667,-33.9035747051239L483.87532500000003,258.89335495233536L484.21385,-40.09285354614258L486.80920833333334,233.2338007092476L487.15799166666665,162.30954609811306L489.97903333333335,-295.93375754356384L494.93380833333333,467.24914133548737L496.90340833333335,92.75631523132324L497.06754166666667,303.5435090661049L497.18038333333334,676.6166961193085L499.5808333333333,504.93129301071167L499.78600000000006,331.4806659221649L501.01699999999994,-2.854103207588196L502.46342500000003,253.30006563663483L502.70962499999996,321.7762373685837L504.1047583333333,547.0491027832031L509.85968333333335,-411.9071795940399L510.14691666666664,233.52105121314526L510.6700916666667,-299.5710003376007L511.66515000000004,249.3686864376068L511.98315833333334,435.9490849971771L512.03445,-310.5334224700928L513.1218333333334,133.56022748351097L515.9531333333333,323.06516540050507L518.0458333333333,116.31220838427544L519.5538083333333,-313.51353907585144L519.7179416666667,343.0332534313202L519.7589750000001,536.8783818483353L520.0975,104.0206073820591L520.3026666666667,488.80482244491577L523.5853333333333,-97.87050354480743L524.4880666666667,161.41036288440228L525.6780333333334,-131.66890561580658L527.3706583333334,553.7300659418106L528.2118416666666,18.327029943466187L528.7042416666667,-321.35507369041443L536.9109083333333,-29.802608013153076L538.0495833333333,368.2775470018387L538.2342333333333,-108.28991675376892L543.3223666666667,493.04212152957916L543.4967583333333,39.77100455760956L543.8968333333333,-316.8861379623413L549.0054833333334,-470.55971360206604L549.364525,155.14952981472015L549.918475,-48.14606273174286L550.9853416666666,-76.11991059780121L551.2623166666666,10.58030390739441L551.30335,124.86071240901947L551.9496250000001,-348.5902347564697L555.1091916666667,564.2092752456665L556.0016666666667,123.72254759073257L556.073475,552.7611393928528L560.5666249999999,514.8134876489639L562.1771833333333,18.823242902755737L562.3208,87.6449094414711L563.8390333333333,398.1763379573822L565.2752,294.4028513431549L567.3884166666667,48.622189700603485L567.4807416666667,295.5763666033745L568.0244333333333,-239.49394941329956L570.9583166666666,-265.55445742607117L572.815075,128.56080982089043L574.8051916666666,139.0780000090599L575.3899166666666,307.4729055762291L576.200325,187.14296400547028L576.569625,592.6274256706238L578.7033583333333,400.5979220867157L579.585575,256.6641479730606L586.75615,183.6083137448877L587.1972583333333,54.209733724594116L587.8127583333334,518.3550206422806L588.017925,430.1312448978424L589.2078916666667,89.74773126840591L589.741325,54.48965334892273L590.356825,562.5046809911728L591.4442083333333,516.9437742233276L591.587825,11.674635529518127L591.834025,63.26240962743759L591.957125,746.772791147232L592.5008166666667,-317.77041721343994L593.77285,20.381816625595093L594.4396416666667,191.7447344334796L594.6755833333333,395.7628197669983L595.7629666666667,290.25283563137054L596.8400916666667,-284.50747632980347L608.0319333333333,-144.99149358272552L608.5858833333333,8.210923075675964L608.8423416666667,173.30501633137465L610.1348916666666,128.07776033878326L610.9658166666667,-203.33484077453613L616.0744666666666,414.57770383358L617.0284916666667,151.80160470306873L617.192625,354.823966383934L617.500375,337.08923095464706L618.2492333333333,264.3985216319561L619.4186833333333,-320.7920801639557L621.9524916666667,-333.8512408733368L621.9730083333334,92.30169367790222L623.901575,-35.46811902523041L625.5429083333333,650.7295382022858L627.1329499999999,81.79343122243881L628.086975,126.57066330313683L628.6511833333334,0.5706201195716858L629.2666833333333,-32.6974915266037L633.4520833333332,110.93998324871063L633.9444833333333,173.85090634971857L634.02655,202.3849300146103L635.5447833333333,108.01926845312119L636.026925,239.57753777503967L636.703975,-53.01027452945709L639.6378583333334,-133.42200815677643L639.9866416666666,45.196452498435974L641.2484166666667,490.7979655265808L641.4330666666667,85.54552352428436L643.01285,255.91371148824692L644.24385,196.7019747197628L645.3107166666666,-115.43917751312256L645.6492416666667,47.610804319381714L646.3057749999999,-365.37108278274536L650.3885916666667,-223.59287452697754L650.4706583333334,164.5029942691326L651.0759,200.42912358418107L651.2195166666667,-169.23452925682068L653.630225,-240.91134667396545L653.6712583333333,82.6191873550415L655.1176833333334,12.458338379859924L655.4562083333334,117.89673167467117L655.56905,-209.02529311180115L657.2719333333334,160.25640696287155L657.4258083333333,11.408808767795563L657.6412333333334,175.91836646944284L657.7951083333334,348.9418240785599L659.0055916666668,-52.62574553489685L661.3137166666667,106.69586303830147L662.9447916666667,442.05617237091064L663.170475,153.48215040564537L663.6218416666667,234.13726191222668L663.909075,358.15994185209274L664.8118083333333,49.766775727272034L666.1453916666666,148.12000206112862L666.6070166666666,-253.04468178749084L668.771525,1.9921630024909973L669.8589083333333,408.405255317688L669.8896833333333,-138.50571262836456L670.1564,327.33010947704315L670.4744083333334,-46.359344601631165L672.31065,133.01067343354225L672.3619416666667,439.44760715961456L672.4440083333333,29.524028956890106L674.1058583333333,124.94084796309471L674.6495500000001,673.1891226768494L676.7012166666666,541.3870614767075L677.9835083333334,105.43932268023491L680.1685333333334,-128.66470384597778L680.5070583333334,240.16168749332428L680.9379083333333,298.214728474617L681.4816,454.228440284729L682.4664,-157.23786449432373L683.2870666666668,149.58420936763287L685.1233083333334,-67.72403419017792L685.4618333333333,-51.75712502002716L687.2980749999999,186.98524870723486L690.375575,429.21292197704315L690.437125,182.15757865458727L692.2733666666667,-326.6139307022095L700.5928749999999,-201.76198267936707L701.11605,250.8288748562336L702.0803333333333,95.63437968492508L703.2703,-403.454886674881L703.8345083333334,156.3651743978262L704.1422583333333,307.9294534921646L704.9424083333334,-96.47834050655365L705.2193833333333,293.1637496352196L705.393775,275.0755210518837L705.6502333333334,93.40910428762436L707.9686166666668,272.419224858284L708.1327500000001,-296.6538791656494L714.2262000000001,-54.00247514247894L714.3903333333334,185.18884243816137L714.6980833333333,-11.198384642601013L719.981125,-259.2195861339569L720.2068083333334,43.86126923561096L721.1300583333334,283.16728565096855L722.9560416666667,267.9113225340843L723.2432749999999,124.78090918064117L724.1973,411.3551584482193L729.5931833333333,-154.20914947986603L730.444625,341.9122906923294L731.1729666666666,-267.99541783332825L732.1680250000001,300.150666475296L732.2911250000001,23.661713540554047L732.8348166666667,-173.19718086719513L733.8196166666667,658.6221721172333L735.3173333333334,166.06120327860117L740.0259083333334,537.8788061141968L740.846575,341.5148178935051L743.8933,217.2035722285509L744.2113083333332,93.85981678962708L744.293375,363.2687791585922L747.5657833333332,39.42962157726288L749.1045333333334,251.56379342079163L751.1151666666666,4.705146074295044L752.5308166666666,337.1659249663353L753.2489,33.37023138999939L753.2591583333334,66.75158160924911L754.1208583333333,-176.78161203861237L755.7416750000001,21.266456365585327L756.8700916666666,-182.9555025100708L757.7317916666666,204.22891659289598L758.9935666666668,24.50577574968338L760.1219833333334,6.42827171087265L760.8913583333334,198.7365240342915L761.4247916666667,640.0098602771759L764.358675,370.2065005302429L764.4612583333334,245.36918047070503L764.4817750000001,168.9582877457142L766.1641416666666,167.47393530607224L768.2363250000001,-195.87970519065857L769.2621583333333,-1.1178535223007202L769.375,334.6350563764572L769.92895,433.1578871011734L771.8882916666668,53.69903361797333L772.1857833333333,-214.69330501556396L772.3704333333333,176.9855825677514L773.2218750000001,19.34350723028183L773.99125,-56.71204483509064L774.3092583333332,246.8625394999981L774.7811416666667,16.178685128688812L775.5402583333332,482.443522810936L775.9711083333334,323.553808093071L776.6481583333333,82.50252413749695L778.6793083333333,228.25483234226704L779.0999,356.12052100896835L780.1359916666667,361.42000061273575L782.6903166666667,-31.542890667915344L785.1112833333334,57.70778274536133L786.270475,5.997397363185883L787.7066416666667,491.84158086776733L789.3582333333334,10.996758699417114L789.6454666666666,401.4956520795822L790.1070916666666,103.0218616425991L794.4053333333333,59.829665422439575L794.7541166666666,320.79837745428085L795.1541916666666,442.29549193382263L802.8479416666667,61.41670650243759L802.8582,437.05069398880005L803.0325916666667,469.3818612098694L804.02765,79.53528374433517L804.550825,290.1612263917923L805.4022666666666,-60.82082962989807L806.2024166666667,-291.74843645095825L809.6799916666666,90.5518918633461L810.2852333333334,-274.95452070236206L812.1625083333333,358.5091879963875L812.1727666666666,-141.73091661930084L812.306125,45.48689389228821L813.75255,47.79968923330307L814.2654666666666,-125.08020508289337L815.075875,-226.26026701927185L815.2913,306.3742931485176L817.1993500000001,388.8444972038269L817.476325,251.45917841792107L817.784075,182.66775844618678L818.5944833333334,66.26541727781296L819.7947083333333,7.035301208496094L825.3649833333333,152.28261798620224L825.4060166666667,498.35363245010376L825.724025,28.22555923461914L826.0933249999999,-192.6232738494873L827.3961333333334,-193.69023084640503L830.0530416666666,57.68913871049881L830.8839666666668,398.54336071014404L835.3155666666667,-92.43532240390778L836.6081166666667,4.649236500263214L836.8748333333333,439.31483459472656L839.6445833333333,470.5942529439926L840.21905,51.0940620303154L840.742225,167.02904132008553L840.9679083333333,-124.83583867549896L841.3064333333333,282.3575656414032L841.5628916666667,303.4411189556122L843.204225,-165.62844622135162L844.0043750000001,107.31571805477142L844.2198,88.02322000265121L844.2300583333333,605.9043216705322L844.250575,101.67266437411308L845.296925,40.204931795597076L845.3276999999999,246.9717394709587L845.7380333333334,-225.78807163238525L846.9074833333333,-84.13139319419861L848.6001083333333,372.4207134246826L850.1388583333334,388.9426853656769L853.2779083333334,606.4917833805084L854.7038166666667,159.7176422327757L859.1148999999999,-258.4048812389374L859.5354916666666,403.5226811170578L859.5867833333334,270.60690638422966L860.068925,146.87100099027157L860.684425,294.54704689979553L860.9203666666667,547.7053728103638L861.8128416666667,252.1673363149166L863.6183083333333,-198.99806928634644L863.6901166666667,108.88311812281609L870.5734583333333,-210.59702467918396L870.9427583333332,175.0675155222416L873.3945,665.6672966480255L873.7125083333334,-301.8705589771271L876.7694916666667,183.06243182346225L876.9541416666666,745.6650989055634L877.7748083333333,462.1528422832489L878.4108249999999,10.438147366046906L879.1083916666666,-44.8846971988678L881.4780666666666,449.04515075683594L881.4985833333333,89.21086192131042L882.7911333333333,132.25776422023773L883.2322416666666,327.9836758375168L884.4529833333333,246.05661588907242L886.6380083333333,472.4535870552063L887.1611833333334,217.7432438135147L888.6383833333333,454.9986698627472L889.4487916666666,486.0797517299652L890.32075,68.15911048650742L891.5107166666666,-204.939106464386L891.6953666666667,450.207231760025L893.2238583333333,313.9804735779762L894.50615,351.8343869447708L895.7987,326.2700130343437L897.1938333333334,503.9220367670059L897.9119166666667,345.00250285863876L899.0711083333333,345.0500761270523L900.7021833333333,590.7522976398468L901.7177583333333,416.06086778640747L903.6873583333333,257.8961300253868L904.1182083333333,88.2103813290596L904.8670666666667,46.8326101899147L905.4517916666666,413.11830961704254L910.6835416666667,-41.79262626171112L911.3811083333334,57.75221300125122L912.1709999999999,321.2575051188469L912.3146166666667,666.5782520771027L912.7146916666667,15.775388181209564L913.0429583333333,128.9931824505329L914.1816333333334,351.0540636777878L916.1614916666667,528.7413364648819L916.8693166666667,-17.227809190750122L917.27965,295.81241923570633L919.1158916666667,-238.94289708137512L919.3518333333334,278.0728622674942L920.1314666666666,307.4345811009407L921.3214333333333,-231.27038669586182L922.9217333333333,592.3468301296234L922.9935416666666,172.74326620995998L923.2294833333333,14.998072743415833L923.5680083333334,593.0132389068604L924.2758333333334,521.2758142948151L924.942625,23.688547432422638L926.8506749999999,196.3263319171965L927.2507499999999,-127.37710511684418L928.8920833333334,-37.76152682304382L929.1588,212.98368926346302L929.5383583333333,687.7416987419128L931.7233833333333,561.298237323761L932.1234583333334,230.4534681737423L932.1439750000001,191.51284748967737L932.9543833333333,67.9131218791008L933.4673,-92.29493451118469L934.7085583333334,-217.01305103302002L937.4167583333333,154.1777278035879L938.5759499999999,385.45369362831116L938.9349916666666,333.3867734670639L943.2742666666667,-1.9714912176132202L946.3312500000001,733.2248525619507L948.1880083333334,358.0261216163635L948.762475,-164.67213678359985L949.16255,-101.20241224765778L950.4140666666667,249.2752803862095L950.8346583333333,-152.11353743076324L951.6655833333333,544.9954200983047L952.2913416666667,304.1190295815468L952.4759916666667,-163.737389087677L954.7943750000001,459.6393109560013L955.3278083333333,81.69760876893997L956.7639750000001,370.9719198346138L959.25675,-121.93949067592621L961.84185,322.8368182182312L963.4934416666666,164.4158911406994L963.9858416666666,-224.95056581497192L965.9759583333333,634.1730945110321L966.304225,14.799916505813599L966.3862916666666,19.998729586601257L966.8992083333334,506.77372920513153L968.3251166666666,377.91076773405075L968.4789916666667,572.4206714630127L969.1560416666666,213.95374515652657L970.4485916666667,164.0822136104107L971.32055,161.31300835311413L971.8745,389.45282220840454L972.67465,474.5528265237808L974.1313333333334,289.92904901504517L974.7468333333333,626.9375867843628L974.9109666666667,371.406613111496L975.0751,-125.67767035961151L975.4546583333334,408.4182779788971L976.275325,369.27155005931854L977.0344416666667,-101.99692976474762L977.8243333333334,194.1766623761505L979.7529000000001,432.25026619434357L980.0709083333333,-23.448856115341187L980.4094333333334,99.00517612695694L981.0659666666667,-96.69983839988708L981.5788833333334,-78.67769193649292L982.2251583333333,330.7700296640396L984.646125,-139.8358941078186L984.9436166666667,225.01596638560295L985.630925,237.41783192753792L989.4367666666666,80.98245513439178L991.0268083333333,98.93960094451904L991.38585,303.3191159963608L991.4576583333333,250.98559176921844L992.8015,216.56220616400242L992.9348583333334,277.5386965870857L993.4067416666667,157.84102718532085L993.6734583333333,-118.68109917640686L994.2274083333334,-271.80605578422546L995.1404,81.08303153514862L999.0898583333334,343.45353841781616L999.6745833333334,486.09550058841705L1000.7619666666666,314.61346954107285L1001.4287583333333,269.22948959469795L1001.8903833333333,173.55355229973793L1003.4393916666667,399.72366893291473L1003.5624916666667,-102.1584963798523L1005.6141583333333,192.34391537681222L1006.2706916666666,98.9768383204937L1006.5887,210.4118896946311L1006.7220583333334,248.00425851345062L1009.1532833333333,506.1464785337448L1009.8405916666667,-30.527235746383667L1012.2307833333334,332.7762967944145L1013.17455,35.21061730384827L1013.6772083333333,222.70770813524723L1014.77485,609.2714231014252L1017.2060749999999,25.108524441719055L1018.2626833333334,401.0019625425339L1023.3918500000001,379.2820336818695L1024.530525,246.55734622478485L1024.7254333333333,622.6665143966675L1025.5563583333333,-44.481152415275574L1026.130825,259.8766053020954L1026.1923749999999,-109.28135132789612L1028.2645583333333,626.3080379962921L1028.9723833333333,307.581345140934L1029.1057416666667,261.3055663704872L1030.4495833333333,68.67824828624725L1035.271,141.062615275383L1036.8507833333333,103.76478981971741L1037.05595,500.60229456424713L1039.1691666666666,458.50850236415863L1040.1744833333332,366.0744642019272L1040.656625,248.37506639957428L1040.9541166666668,213.14399135112762L1042.4928666666667,275.1802318096161L1042.6980333333333,144.50950303673744L1042.7288083333333,-133.8581771850586L1043.3648249999999,55.8614262342453L1043.6007666666667,436.4848165512085L1047.3142833333334,-58.25345027446747L1047.581,218.60521218180656L1048.87355,162.47371217608452L1049.5198249999999,181.1613309904933L1052.9768833333335,587.1909377574921L1054.4335666666666,-129.94335794448853L1054.4540833333333,236.62947088479996L1054.7720916666667,53.07841819524765L1055.5004333333334,333.5064107179642L1057.9008833333335,374.6725298166275L1058.8959416666667,518.0176931619644L1067.4924250000001,-7.532956123352051L1070.7648333333334,213.60468770563602L1071.1341333333332,-12.208384394645691L1071.2162,248.08359423279762L1072.3651333333332,479.91354417800903L1074.9092,425.3917622566223L1076.0068416666668,32.974324464797974L1077.43275,271.8278597295284L1077.709725,-68.88199210166931L1079.0125333333333,375.60018038749695L1080.417925,494.2338752746582L1080.9923916666667,8.511829912662506L1081.3206583333333,-69.29639661312103L1082.049,131.16489708423615L1082.4285583333333,191.71799136791378L1085.9471666666666,-15.317240595817566L1087.0961,661.62211561203L1087.7116,20.516898572444916L1087.7936666666667,327.03587168455124L1088.6553666666666,-68.50712871551514L1090.4710916666666,199.8485343977809L1091.2917583333333,593.3124446868896L1092.1534583333334,617.5437870025635L1092.5637916666667,364.07067543268204L1092.8715416666666,217.56659299135208L1093.5383333333334,236.9310254752636L1093.8665999999998,114.18256956338882L1097.8263166666668,405.77517342567444L1099.2419666666667,114.8807013630867L1099.96005,568.9928276538849L1101.0679499999999,420.78507471084595L1101.9091333333333,84.83840203285217L1102.3605,428.2897775173187L1104.3403583333334,446.42491471767426L1105.25335,24.753397822380066L1105.776525,516.1420469284058L1105.8073,554.7322926521301L1106.6279666666667,71.04317933320999L1107.7563833333334,32.35468912124634L1107.8589666666667,-169.46668410301208L1109.3259083333332,416.68334197998047L1110.0747666666666,24.225349187850952L1112.0443666666667,264.10796758532524L1112.76245,491.44263231754303L1113.2651083333333,421.4404435157776L1113.4497583333334,201.28680340200663L1114.1062916666667,-98.79312980175018L1115.6347833333334,205.2866994291544L1118.05575,120.00888115167618L1118.7225416666668,380.31122946739197L1120.9280833333332,396.8959264755249L1123.34905,165.50861041992903L1123.564475,61.35026389360428L1124.4364333333333,303.9254921078682L1124.45695,-67.26231551170349L1127.2267,347.2007077932358L1128.2217583333334,299.4741978049278L1128.4064083333333,128.93797132372856" style="fill: none;" fill="none"></path></g></g></g></g></g></g><g transform="translate(50, 378)" clip-path="url(#clip_1)"><clipPath id="clip_1"><rect width="1231" height="22"></rect></clipPath><g><g><line x1="0" y1="0" x2="0" y2="5" style="visibility: inherit;" fill="rgb(0, 0, 0)" stroke="rgb(204, 204, 204)" stroke-width="1px"></line><line x1="102.58333333333333" y1="0" x2="102.58333333333333" y2="5" style="visibility: inherit;" fill="rgb(0, 0, 0)" stroke="rgb(204, 204, 204)" stroke-width="1px"></line><line x1="205.16666666666666" y1="0" x2="205.16666666666666" y2="5" style="visibility: inherit;" fill="rgb(0, 0, 0)" stroke="rgb(204, 204, 204)" stroke-width="1px"></line><line x1="307.75" y1="0" x2="307.75" y2="5" style="visibility: inherit;" fill="rgb(0, 0, 0)" stroke="rgb(204, 204, 204)" stroke-width="1px"></line><line x1="410.3333333333333" y1="0" x2="410.3333333333333" y2="5" style="visibility: inherit;" fill="rgb(0, 0, 0)" stroke="rgb(204, 204, 204)" stroke-width="1px"></line><line x1="512.9166666666667" y1="0" x2="512.9166666666667" y2="5" style="visibility: inherit;" fill="rgb(0, 0, 0)" stroke="rgb(204, 204, 204)" stroke-width="1px"></line><line x1="615.5" y1="0" x2="615.5" y2="5" style="visibility: inherit;" fill="rgb(0, 0, 0)" stroke="rgb(204, 204, 204)" stroke-width="1px"></line><line x1="718.0833333333334" y1="0" x2="718.0833333333334" y2="5" style="visibility: inherit;" fill="rgb(0, 0, 0)" stroke="rgb(204, 204, 204)" stroke-width="1px"></line><line x1="820.6666666666666" y1="0" x2="820.6666666666666" y2="5" style="visibility: inherit;" fill="rgb(0, 0, 0)" stroke="rgb(204, 204, 204)" stroke-width="1px"></line><line x1="923.25" y1="0" x2="923.25" y2="5" style="visibility: inherit;" fill="rgb(0, 0, 0)" stroke="rgb(204, 204, 204)" stroke-width="1px"></line><line x1="1025.8333333333335" y1="0" x2="1025.8333333333335" y2="5" style="visibility: inherit;" fill="rgb(0, 0, 0)" stroke="rgb(204, 204, 204)" stroke-width="1px"></line><line x1="1128.4166666666665" y1="0" x2="1128.4166666666665" y2="5" style="visibility: inherit;" fill="rgb(0, 0, 0)" stroke="rgb(204, 204, 204)" stroke-width="1px"></line><line x1="1231" y1="0" x2="1231" y2="5" style="visibility: inherit;" fill="rgb(0, 0, 0)" stroke="rgb(204, 204, 204)" stroke-width="1px"></line></g><g transform="translate(0, 8)"><text x="0" y="0" dx="0em" dy="0.95em" style="text-anchor: middle; visibility: hidden; font-family: &quot;Helvetica Neue&quot;, sans-serif; font-size: 12px; font-weight: 200;" fill="rgb(50, 49, 63)" stroke="none" stroke-width="1px">-100k</text><text x="102.58333333333333" y="0" dx="0em" dy="0.95em" style="text-anchor: middle; visibility: inherit; font-family: &quot;Helvetica Neue&quot;, sans-serif; font-size: 12px; font-weight: 200;" fill="rgb(50, 49, 63)" stroke="none" stroke-width="1px">0</text><text x="205.16666666666666" y="0" dx="0em" dy="0.95em" style="text-anchor: middle; visibility: inherit; font-family: &quot;Helvetica Neue&quot;, sans-serif; font-size: 12px; font-weight: 200;" fill="rgb(50, 49, 63)" stroke="none" stroke-width="1px">100k</text><text x="307.75" y="0" dx="0em" dy="0.95em" style="text-anchor: middle; visibility: inherit; font-family: &quot;Helvetica Neue&quot;, sans-serif; font-size: 12px; font-weight: 200;" fill="rgb(50, 49, 63)" stroke="none" stroke-width="1px">200k</text><text x="410.3333333333333" y="0" dx="0em" dy="0.95em" style="text-anchor: middle; visibility: inherit; font-family: &quot;Helvetica Neue&quot;, sans-serif; font-size: 12px; font-weight: 200;" fill="rgb(50, 49, 63)" stroke="none" stroke-width="1px">300k</text><text x="512.9166666666667" y="0" dx="0em" dy="0.95em" style="text-anchor: middle; visibility: inherit; font-family: &quot;Helvetica Neue&quot;, sans-serif; font-size: 12px; font-weight: 200;" fill="rgb(50, 49, 63)" stroke="none" stroke-width="1px">400k</text><text x="615.5" y="0" dx="0em" dy="0.95em" style="text-anchor: middle; visibility: inherit; font-family: &quot;Helvetica Neue&quot;, sans-serif; font-size: 12px; font-weight: 200;" fill="rgb(50, 49, 63)" stroke="none" stroke-width="1px">500k</text><text x="718.0833333333334" y="0" dx="0em" dy="0.95em" style="text-anchor: middle; visibility: inherit; font-family: &quot;Helvetica Neue&quot;, sans-serif; font-size: 12px; font-weight: 200;" fill="rgb(50, 49, 63)" stroke="none" stroke-width="1px">600k</text><text x="820.6666666666666" y="0" dx="0em" dy="0.95em" style="text-anchor: middle; visibility: inherit; font-family: &quot;Helvetica Neue&quot;, sans-serif; font-size: 12px; font-weight: 200;" fill="rgb(50, 49, 63)" stroke="none" stroke-width="1px">700k</text><text x="923.25" y="0" dx="0em" dy="0.95em" style="text-anchor: middle; visibility: inherit; font-family: &quot;Helvetica Neue&quot;, sans-serif; font-size: 12px; font-weight: 200;" fill="rgb(50, 49, 63)" stroke="none" stroke-width="1px">800k</text><text x="1025.8333333333335" y="0" dx="0em" dy="0.95em" style="text-anchor: middle; visibility: inherit; font-family: &quot;Helvetica Neue&quot;, sans-serif; font-size: 12px; font-weight: 200;" fill="rgb(50, 49, 63)" stroke="none" stroke-width="1px">900k</text><text x="1128.4166666666665" y="0" dx="0em" dy="0.95em" style="text-anchor: middle; visibility: inherit; font-family: &quot;Helvetica Neue&quot;, sans-serif; font-size: 12px; font-weight: 200;" fill="rgb(50, 49, 63)" stroke="none" stroke-width="1px">1M</text><text x="1231" y="0" dx="0em" dy="0.95em" style="text-anchor: middle; visibility: hidden; font-family: &quot;Helvetica Neue&quot;, sans-serif; font-size: 12px; font-weight: 200;" fill="rgb(50, 49, 63)" stroke="none" stroke-width="1px">1.1M</text></g><line x1="0" y1="0" x2="1231" y2="0" fill="rgb(0, 0, 0)" stroke="rgb(204, 204, 204)" stroke-width="1px"></line></g></g></g></g></svg>